<?xml version="1.0" encoding="utf-8"?>
<!-- Generator: Adobe Illustrator 17.1.0, SVG Export Plug-In . SVG Version: 6.00 Build 0)  -->
<!DOCTYPE svg PUBLIC "-//W3C//DTD SVG 1.1//EN" "http://www.w3.org/Graphics/SVG/1.1/DTD/svg11.dtd">
<svg version="1.1" id="Layer_1" xmlns="http://www.w3.org/2000/svg" xmlns:xlink="http://www.w3.org/1999/xlink" x="0px" y="0px"
	 viewBox="0 0 1280 800" enable-background="new 0 0 1280 800" xml:space="preserve">
<path fill="#888888" d="M779,262l2,2L779,262z"/>
<path fill="#A8A8A8" d="M931.8,270l13.9,2L931.8,270z"/>
<path fill="#787878" d="M755.1,272l2,2L755.1,272z"/>
<path fill="#474747" d="M757.7,273.3l0.6,1.4L757.7,273.3z"/>
<path fill="#D7D7D7" d="M851.8,272.6l1.4,0.6L851.8,272.6z"/>
<path fill="#C4C4C4" d="M921.9,272l2,2L921.9,272z"/>
<path fill="#474747" d="M925.3,272.6l1.4,0.6L925.3,272.6z"/>
<path fill="#010101" d="M888.1,301.7l-15.9-19.5c-16.9-14.5-39.5-6.9-52,9.5c-18.1,23.8-25.6,100.2-13.7,126.1c7.9,4,3,4.8,12.1,3
	c-16.5-14.9,4-97.1,14.1-113.2c3.4-5.4,10.1-15.1,17.7-13.3c25,6.4,19.9,56.4,19.9,74.8l20.6-14.1c10.1-14.7,6.7-35.9,18.9-51.4
	c18.5-23.4,49.6-18.3,45.3,13.7c-3,21.6-10.7,46.1-24.2,63.5c-11.1,14.1-30.6,22.2-32.8,41.7c22.6-2.6,34.7-29.6,53.6-40.7
	c24-14.3,56.6-16.7,83.4-22.8c4.6,24.6-12.7,41.3-31.8,54.8C982,429,958,441.3,933.8,450.8c-22.6,9.1-41.9,11.3-55.2,33.3
	c-14.3,23.8-59,76.4-29.2,85.4c22-18.9,29.6-59.6,50.8-78c43.3-37.5,103.6-38.3,142.3-84.8c11.5-13.7,33.2-55.2,2.2-62.9L1019,346
	l-47.6,10.9c6-18.3,13.3-53.4,1.8-71.1C953.4,255.7,900.6,275.3,888.1,301.7z"/>
<path fill="#686868" d="M951.7,272l2,2L951.7,272z"/>
<path fill="#A8A8A8" d="M953.6,272l2,2L953.6,272z"/>
<path fill="#989898" d="M751.2,273.9l2,2L751.2,273.9z"/>
<path fill="#888888" d="M842.5,273.9l2,2L842.5,273.9z"/>
<path fill="#474747" d="M858.4,273.9l2,2L858.4,273.9z"/>
<path fill="#989898" d="M860.3,273.9l2,2L860.3,273.9z"/>
<path fill="#C4C4C4" d="M915.9,273.9l2,2L915.9,273.9z"/>
<path fill="#595959" d="M917.9,273.9l2,2L917.9,273.9 M957.6,273.9l2,2L957.6,273.9z"/>
<path fill="#BDBDBD" d="M836.5,275.9l2,2L836.5,275.9z"/>
<path fill="#3A3A3A" d="M838.5,275.9l2,2L838.5,275.9z"/>
<path fill="#787878" d="M864.3,275.9l2,2L864.3,275.9z"/>
<path fill="#989898" d="M912,275.9l2,2L912,275.9z"/>
<path fill="#474747" d="M961.6,275.9l2,2L961.6,275.9z"/>
<path fill="#BDBDBD" d="M832.6,277.9l2,2L832.6,277.9z"/>
<path fill="#3A3A3A" d="M834.5,277.9l2,2L834.5,277.9z"/>
<path fill="#989898" d="M868.3,277.9l2,2L868.3,277.9z"/>
<path fill="#A8A8A8" d="M908,277.9l2,2L908,277.9z"/>
<path fill="#888888" d="M965.6,277.9l2,2L965.6,277.9z"/>
<path fill="#595959" d="M830.6,279.9l2,2L830.6,279.9z"/>
<path fill="#686868" d="M870.3,279.9l2,2L870.3,279.9z"/>
<path fill="#3A3A3A" d="M906,279.9l2,2L906,279.9z"/>
<path fill="#595959" d="M967.5,279.9l2,2L967.5,279.9z"/>
<path fill="#474747" d="M872.3,281.9l2,2L872.3,281.9z"/>
<path fill="#888888" d="M902,281.9l2,2L902,281.9z"/>
<path fill="#C4C4C4" d="M824.6,283.9l2,2L824.6,283.9z"/>
<path fill="#474747" d="M874.2,283.9l2,2L874.2,283.9 M900,283.9l2,2L900,283.9z"/>
<path fill="#C4C4C4" d="M822.6,285.9l2,2L822.6,285.9z"/>
<path fill="#595959" d="M876.2,285.9l2,2L876.2,285.9 M973.5,285.9l2,2L973.5,285.9z"/>
<path fill="#3A3A3A" d="M927.8,287.8l2,2L927.8,287.8z"/>
<path fill="#A8A8A8" d="M929.8,287.8l9.9,2L929.8,287.8z"/>
<path fill="#595959" d="M939.8,287.8l2,2L939.8,287.8z"/>
<path fill="#A8A8A8" d="M975.5,287.8l2,2L975.5,287.8z"/>
<path fill="#A8A8A8" d="M923.9,289.8l2,2L923.9,289.8z"/>
<path fill="#C4C4C4" d="M943.7,289.8l2,2L943.7,289.8z"/>
<path fill="#595959" d="M945.7,289.8l2,2L945.7,289.8z"/>
<path fill="#262626" d="M976.1,291.2l0.6,1.4L976.1,291.2z"/>
<path fill="#474747" d="M844.5,291.8l2,2L844.5,291.8 M850.4,291.8l2,2L850.4,291.8z"/>
<path fill="#595959" d="M892.1,291.8l2,2L892.1,291.8z"/>
<path fill="#888888" d="M919.9,291.8l2,2L919.9,291.8z"/>
<path fill="#595959" d="M949.7,291.8l2,2L949.7,291.8z"/>
<path fill="#A8A8A8" d="M816.7,293.8l2,2L816.7,293.8z"/>
<path fill="#989898" d="M842.5,293.8l2,2L842.5,293.8 M852.4,293.8l2,2L852.4,293.8z"/>
<path fill="#787878" d="M882.2,293.8l2,2L882.2,293.8z"/>
<path fill="#A8A8A8" d="M890.1,293.8l2,2L890.1,293.8z"/>
<path fill="#BDBDBD" d="M951.7,293.8l2,2L951.7,293.8z"/>
<path fill="#BDBDBD" d="M755.1,295.8l2,2L755.1,295.8 M840.5,295.8l2,2L840.5,295.8 M854.4,295.8l2,2L854.4,295.8z"/>
<path fill="#262626" d="M955.6,295.8v9.9V295.8z"/>
<path fill="#474747" d="M755.7,299.2l0.6,1.4L755.7,299.2z"/>
<path fill="#787878" d="M779,297.8l2,2L779,297.8z"/>
<path fill="#595959" d="M814.7,297.8l2,2L814.7,297.8z"/>
<path fill="#A8A8A8" d="M856.4,297.8l2,2L856.4,297.8z"/>
<path fill="#474747" d="M884.2,297.8l2,2L884.2,297.8z"/>
<path fill="#787878" d="M888.1,297.8l2,2L888.1,297.8z"/>
<path fill="#3A3A3A" d="M912,297.8l2,2L912,297.8z"/>
<path fill="#BDBDBD" d="M779,299.8l2,2L779,299.8z"/>
<path fill="#989898" d="M836.5,299.8l2,2L836.5,299.8z"/>
<path fill="#686868" d="M858.4,299.8l2,2L858.4,299.8z"/>
<path fill="#888888" d="M977.5,299.8v6V299.8z"/>
<path fill="#595959" d="M777,303.7l2,2L777,303.7z"/>
<path fill="#BDBDBD" d="M860.3,303.7l2,2L860.3,303.7z"/>
<path fill="#A8A8A8" d="M908,303.7l2,2L908,303.7z"/>
<path fill="#989898" d="M753.2,305.7l2,2L753.2,305.7z"/>
<path fill="#C4C4C4" d="M777,305.7l2,2L777,305.7z"/>
<path fill="#595959" d="M810.7,305.7l2,2L810.7,305.7z"/>
<path fill="#A8A8A8" d="M832.6,305.7l2,2L832.6,305.7z"/>
<path fill="#3A3A3A" d="M862.3,305.7l2,2L862.3,305.7z"/>
<path fill="#595959" d="M906,305.7l2,2L906,305.7z"/>
<path fill="#474747" d="M978.1,307.1l0.6,1.4L978.1,307.1z"/>
<path fill="#474747" d="M753.2,307.7l2,2L753.2,307.7z"/>
<path fill="#3A3A3A" d="M830.6,307.7l2,2L830.6,307.7z"/>
<path fill="#BDBDBD" d="M862.3,307.7l2,2L862.3,307.7z"/>
<path fill="#888888" d="M775,309.7l2,2L775,309.7 M808.7,309.7l2,2L808.7,309.7z"/>
<path fill="#BDBDBD" d="M830.6,309.7l2,2L830.6,309.7z"/>
<path fill="#888888" d="M904,309.7l2,2L904,309.7z"/>
<path fill="#191919" d="M977.5,309.7v17.9C980,321.6,980,315.6,977.5,309.7z"/>
<path fill="#C4C4C4" d="M751.2,311.7l2,2L751.2,311.7z"/>
<path fill="#3A3A3A" d="M828.6,311.7l2,2L828.6,311.7z"/>
<path fill="#787878" d="M864.3,311.7l2,2L864.3,311.7z"/>
<path fill="#787878" d="M751.2,313.6l2,2L751.2,313.6z"/>
<path fill="#474747" d="M773,313.6l2,2L773,313.6z"/>
<path fill="#A8A8A8" d="M828.6,313.6l2,2L828.6,313.6z"/>
<path fill="#888888" d="M902,313.6l2,2L902,313.6z"/>
<path fill="#BDBDBD" d="M773,315.6l2,2L773,315.6z"/>
<path fill="#787878" d="M806.7,315.6l2,2L806.7,315.6z"/>
<path fill="#787878" d="M826.6,317.6l2,2L826.6,317.6z"/>
<path fill="#686868" d="M866.3,317.6l2,2L866.3,317.6 M900,317.6l2,2L900,317.6z"/>
<path fill="#474747" d="M954.2,319l0.6,1.4L954.2,319z"/>
<path fill="#787878" d="M749.2,319.6l2,2L749.2,319.6z"/>
<path fill="#A8A8A8" d="M771,319.6l2,2L771,319.6z"/>
<path fill="#C4C4C4" d="M826.6,319.6l2,2L826.6,319.6z"/>
<path fill="#A8A8A8" d="M866.3,319.6l2,2L866.3,319.6z"/>
<path fill="#C4C4C4" d="M900,319.6l2,2L900,319.6z"/>
<path fill="#989898" d="M804.8,321.6l2,2L804.8,321.6z"/>
<path fill="#888888" d="M769,323.6l2,2L769,323.6z"/>
<path fill="#474747" d="M804.8,323.6l2,2L804.8,323.6z"/>
<path fill="#686868" d="M824.6,323.6l2,2L824.6,323.6z"/>
<path fill="#787878" d="M898.1,323.6l2,2L898.1,323.6z"/>
<path fill="#686868" d="M747.2,325.6l2,2L747.2,325.6z"/>
<path fill="#C4C4C4" d="M824.6,325.6l2,2L824.6,325.6z"/>
<path fill="#888888" d="M868.3,327.5v6V327.5z"/>
<path fill="#989898" d="M951.7,327.5l2,2L951.7,327.5z"/>
<path fill="#474747" d="M977.5,327.5v6V327.5z"/>
<path fill="#595959" d="M896.1,329.5l2,2L896.1,329.5z"/>
<path fill="#262626" d="M952.3,330.9l0.6,1.4L952.3,330.9z"/>
<path fill="#686868" d="M802.8,331.5l2,2L802.8,331.5 M822.6,331.5l2,2L822.6,331.5z"/>
<path fill="#989898" d="M896.1,331.5l2,2L896.1,331.5z"/>
<path fill="#D7D7D7" d="M823.2,334.9l0.6,1.4L823.2,334.9z"/>
<path fill="#A8A8A8" d="M978.1,334.9l0.6,1.4L978.1,334.9z"/>
<path fill="#BDBDBD" d="M949.7,335.5l2,2L949.7,335.5z"/>
<path fill="#595959" d="M763.1,337.5l2,2L763.1,337.5z"/>
<path fill="#474747" d="M894.7,338.9l0.6,1.4L894.7,338.9z"/>
<path fill="#686868" d="M949.7,337.5l2,2L949.7,337.5z"/>
<path fill="#989898" d="M801.4,340.8l0.6,1.4L801.4,340.8z"/>
<path fill="#686868" d="M913.9,339.5l2,2L913.9,339.5z"/>
<path fill="#010101" d="M915.9,339.5c-2.4,8.7-1.2,15.1,7.9,17.9C923.3,349.6,922.5,344,915.9,339.5z"/>
<path fill="#888888" d="M917.9,339.5l2,2L917.9,339.5z"/>
<path fill="#787878" d="M821.2,342.8l0.6,1.4L821.2,342.8 M894.7,342.8l0.6,1.4L894.7,342.8z"/>
<path fill="#C4C4C4" d="M921.9,341.4v6V341.4z"/>
<path fill="#474747" d="M975.5,341.4l2,2L975.5,341.4z"/>
<path fill="#C4C4C4" d="M1037,341.4l9.9,2L1037,341.4z"/>
<path fill="#686868" d="M761.1,343.4l2,2L761.1,343.4z"/>
<path fill="#474747" d="M800.8,343.4v6V343.4z"/>
<path fill="#E8E8E8" d="M912,343.4v6V343.4z"/>
<path fill="#888888" d="M947.7,343.4l2,2L947.7,343.4z"/>
<path fill="#989898" d="M975.5,343.4l2,2L975.5,343.4 M1025.1,343.4l2,2L1025.1,343.4z"/>
<path fill="#262626" d="M1028.5,344l1.4,0.6L1028.5,344z"/>
<path fill="#BDBDBD" d="M761.1,345.4l2,2L761.1,345.4 M821.2,346.8l0.6,1.4L821.2,346.8z"/>
<path fill="#989898" d="M894.1,345.4v6V345.4z"/>
<path fill="#BDBDBD" d="M1015.2,345.4l2,2L1015.2,345.4z"/>
<path fill="#787878" d="M1017.2,345.4l2,2L1017.2,345.4z"/>
<path fill="#595959" d="M921.9,347.4l2,2L921.9,347.4z"/>
<path fill="#3A3A3A" d="M973.5,347.4l2,2L973.5,347.4z"/>
<path fill="#888888" d="M1009.2,347.4l2,2L1009.2,347.4z"/>
<path fill="#3A3A3A" d="M515.5,350.8l0.6,1.4L515.5,350.8z"/>
<path fill="#C4C4C4" d="M723.4,349.4v6V349.4z"/>
<path fill="#595959" d="M759.1,349.4l2,2L759.1,349.4z"/>
<path fill="#888888" d="M945.7,349.4l2,2L945.7,349.4z"/>
<path fill="#A8A8A8" d="M1001.3,349.4l2,2L1001.3,349.4z"/>
<path fill="#262626" d="M1004.7,350l1.4,0.6L1004.7,350z"/>
<path fill="#A8A8A8" d="M759.1,351.4l2,2L759.1,351.4z"/>
<path fill="#787878" d="M913.9,351.4l2,2L913.9,351.4z"/>
<path fill="#C4C4C4" d="M924.5,352.8l0.6,1.4L924.5,352.8 M993.3,351.4l2,2L993.3,351.4z"/>
<path fill="#686868" d="M995.3,351.4l2,2L995.3,351.4z"/>
<path fill="#474747" d="M1054.9,351.4l2,2L1054.9,351.4z"/>
<path fill="#BDBDBD" d="M892.1,353.3l2,2L892.1,353.3z"/>
<path fill="#C4C4C4" d="M971.5,353.3l2,2L971.5,353.3z"/>
<path fill="#A8A8A8" d="M985.4,353.3l2,2L985.4,353.3z"/>
<path fill="#262626" d="M988.8,353.9l1.4,0.6L988.8,353.9z"/>
<path fill="#989898" d="M1056.9,353.3l2,2L1056.9,353.3z"/>
<path fill="#3A3A3A" d="M757.1,355.3l2,2L757.1,355.3z"/>
<path fill="#BDBDBD" d="M798.8,355.3v9.9V355.3 M890.1,355.3l2,2L890.1,355.3z"/>
<path fill="#595959" d="M943.7,355.3l2,2L943.7,355.3 M972.9,355.9l1.4,0.6L972.9,355.9z"/>
<path fill="#3A3A3A" d="M976.9,355.9l1.4,0.6L976.9,355.9z"/>
<path fill="#989898" d="M513.5,358.7l0.6,1.4L513.5,358.7z"/>
<path fill="#989898" d="M757.1,357.3l2,2L757.1,357.3z"/>
<path fill="#C4C4C4" d="M921.3,357.9l1.4,0.6L921.3,357.9z"/>
<path fill="#BDBDBD" d="M1058.9,357.3l2,2L1058.9,357.3z"/>
<path fill="#686868" d="M719.4,359.3l2,2L719.4,359.3z"/>
<path fill="#989898" d="M941.7,359.3l2,2L941.7,359.3z"/>
<path fill="#595959" d="M1029.1,359.3l6,2L1029.1,359.3z"/>
<path fill="#474747" d="M1058.9,359.3l2,2L1058.9,359.3z"/>
<path fill="#3A3A3A" d="M513.5,362.7l0.6,1.4L513.5,362.7z"/>
<path fill="#686868" d="M717.4,361.3l2,2L717.4,361.3z"/>
<path fill="#010101" d="M902,361.3c0.6,7.1,1.6,10.5,7.9,13.9C911.4,367.4,909.2,364.5,902,361.3z"/>
<path fill="#595959" d="M904,361.3l2,2L904,361.3z"/>
<path fill="#A8A8A8" d="M906,361.3l2,2L906,361.3z"/>
<path fill="#787878" d="M1023.1,361.3l2,2L1023.1,361.3z"/>
<path fill="#595959" d="M755.1,363.3l2,2L755.1,363.3z"/>
<path fill="#686868" d="M882.2,363.3l2,2L882.2,363.3z"/>
<path fill="#787878" d="M900,363.3"/>
<path fill="#A8A8A8" d="M939.8,363.3l2,2L939.8,363.3z"/>
<path fill="#474747" d="M1013.2,363.3l2,2L1013.2,363.3z"/>
<path fill="#C4C4C4" d="M1016.6,363.9l1.4,0.6L1016.6,363.9z"/>
<path fill="#474747" d="M1035,363.3l2,2L1035,363.3z"/>
<path fill="#D7D7D7" d="M1060.8,363.3v9.9V363.3z"/>
<path fill="#A8A8A8" d="M755.1,365.3l2,2L755.1,365.3z"/>
<path fill="#E8E8E8" d="M769,365.3l13.9,2L769,365.3z"/>
<path fill="#989898" d="M798.8,365.3v9.9V365.3z"/>
<path fill="#E8E8E8" d="M820.6,365.3l11.9,2L820.6,365.3z"/>
<path fill="#787878" d="M834.5,365.3l2,2L834.5,365.3z"/>
<path fill="#E8E8E8" d="M884.2,365.3l6,4L884.2,365.3z"/>
<path fill="#474747" d="M1003.3,365.3l2,2L1003.3,365.3z"/>
<path fill="#888888" d="M1005.3,365.3l2,2L1005.3,365.3z"/>
<path fill="#A8A8A8" d="M937.8,367.2l2,2L937.8,367.2z"/>
<path fill="#474747" d="M993.3,367.2l2,2L993.3,367.2z"/>
<path fill="#888888" d="M995.3,367.2l2,2L995.3,367.2 M511.6,370.6l0.6,1.4L511.6,370.6z"/>
<path fill="#3A3A3A" d="M983.4,369.2l2,2L983.4,369.2z"/>
<path fill="#787878" d="M985.4,369.2l2,2L985.4,369.2z"/>
<path fill="#E8E8E8" d="M988.8,369.8l1.4,0.6L988.8,369.8z"/>
<path fill="#787878" d="M904,373.2"/>
<path fill="#888888" d="M935.8,371.2l2,2L935.8,371.2 M977.5,371.2l2,2L977.5,371.2z"/>
<path fill="#262626" d="M511.6,374.6l0.6,1.4L511.6,374.6z"/>
<path fill="#595959" d="M904,373.2l2,2L904,373.2z"/>
<path fill="#686868" d="M969.5,373.2l2,2L969.5,373.2z"/>
<path fill="#787878" d="M908,377.2"/>
<path fill="#595959" d="M933.8,375.2l2,2L933.8,375.2z"/>
<path fill="#686868" d="M963.6,375.2l2,2L963.6,375.2 M1035,375.2l2,2L1035,375.2z"/>
<path fill="#3A3A3A" d="M1058.9,375.2l2,2L1058.9,375.2z"/>
<path fill="#A8A8A8" d="M959.6,377.2l2,2L959.6,377.2z"/>
<path fill="#989898" d="M1058.9,377.2l2,2L1058.9,377.2z"/>
<path fill="#010101" d="M446.1,419.7c-5.6,1-5.6-1.8-12.5-2c-29.8,4.6-56.2-5-83.4,13.9c-8.9,6.2-16.1,14.7-19.3,25
	c-3.2,10.5-2.2,26.2-14.5,30.8c-20,7.7-51.6-5-73.4-2c-7.7,1.2-20.8,1.2-23,10.9c-3.4,14.7,13.5,31.8,22.8,41.3
	c0.2,0.2,0.4,0.4,0.6,0.4l49.4,35.9c0.4,0.2,0.6,0.6,1,1l51.6,67.3c1.2,1.6,15.5,12.9,17.3,13.7c58.4,26.8-26.6-66.7-44.9-88.1
	c-1.8-2-1.2-5.2,1.2-6.7c9.7-6,22-15.9,24.6-25.6c7.9-28.6-9.3-64.5,20.4-85.8c39.3-28,86.6,7.3,126.8,2.4
	c5.6-0.6,9.7-11.1,14.1-20.4c4.2-8.7,6.9-24.8-9.9-9.9"/>
<path fill="#010101" d="M457.4,420.8"/>
<path fill="#C4C4C4" d="M509,379.2l2,2L509,379.2z"/>
<path fill="#595959" d="M953.6,379.2l2,2L953.6,379.2z"/>
<path fill="#888888" d="M509,381.1l2,2L509,381.1z"/>
<path fill="#595959" d="M929.8,381.1l2,2L929.8,381.1 M949.7,381.1l2,2L949.7,381.1z"/>
<path fill="#474747" d="M1033.1,381.1l2,2L1033.1,381.1z"/>
<path fill="#787878" d="M927.8,383.1l2,2L927.8,383.1z"/>
<path fill="#C4C4C4" d="M947.7,383.1l2,2L947.7,383.1z"/>
<path fill="#A8A8A8" d="M1056.9,383.1l2,2L1056.9,383.1z"/>
<path fill="#989898" d="M925.9,385.1l2,2L925.9,385.1z"/>
<path fill="#888888" d="M943.7,385.1l2,2L943.7,385.1z"/>
<path fill="#474747" d="M1031.1,385.1l2,2L1031.1,385.1z"/>
<path fill="#989898" d="M923.9,387.1l2,2L923.9,387.1z"/>
<path fill="#C4C4C4" d="M941.7,387.1l2,2L941.7,387.1z"/>
<path fill="#A8A8A8" d="M1029.1,387.1l2,2L1029.1,387.1z"/>
<path fill="#888888" d="M1054.9,387.1l2,2L1054.9,387.1z"/>
<path fill="#989898" d="M507,389.1l2,2L507,389.1z"/>
<path fill="#888888" d="M921.9,389.1l2,2L921.9,389.1z"/>
<path fill="#595959" d="M919.9,391.1l2,2L919.9,391.1z"/>
<path fill="#3A3A3A" d="M935.8,391.1l2,2L935.8,391.1 M1027.1,391.1l2,2L1027.1,391.1z"/>
<path fill="#989898" d="M1052.9,391.1l2,2L1052.9,391.1z"/>
<path fill="#474747" d="M747.2,393.1l2,2L747.2,393.1z"/>
<path fill="#3A3A3A" d="M933.8,393.1l2,2L933.8,393.1z"/>
<path fill="#686868" d="M1025.1,393.1l2,2L1025.1,393.1z"/>
<path fill="#010101" d="M478.2,443.3c-6.6,28,220,6.4,219.4,35.1l15.9-7.7l49.6,5.8l-35.7-21.8c11.1,6.9,22,22.6,35.7,23.6
	c20.8,1.4,82.4-22.6,69.1-49c-3.6-7.7-28.6-10.9-26.8-17.5l5.4,33c-29.4,4-53.4,9.1-83.4,7.9L505,417.9
	C492.3,413.3,482.8,454,478.2,443.3z"/>
<path fill="#989898" d="M747.2,395l2,2L747.2,395z"/>
<path fill="#3A3A3A" d="M931.8,395l2,2L931.8,395z"/>
<path fill="#888888" d="M1023.1,395l2,2L1023.1,395z"/>
<path fill="#989898" d="M505,397l2,2L505,397z"/>
<path fill="#BDBDBD" d="M912,397l2,2L912,397z"/>
<path fill="#A8A8A8" d="M1021.1,397l2,2L1021.1,397z"/>
<path fill="#989898" d="M1048.9,397l2,2L1048.9,397z"/>
<path fill="#989898" d="M910,399l2,2L910,399z"/>
<path fill="#BDBDBD" d="M1019.2,399l2,2L1019.2,399z"/>
<path fill="#595959" d="M1046.9,399l2,2L1046.9,399z"/>
<path fill="#686868" d="M745.2,401l2,2L745.2,401z"/>
<path fill="#888888" d="M908,401l2,2L908,401z"/>
<path fill="#989898" d="M1017.2,401l2,2L1017.2,401z"/>
<path fill="#BDBDBD" d="M745.2,403l2,2L745.2,403z"/>
<path fill="#787878" d="M906,403l2,2L906,403z"/>
<path fill="#BDBDBD" d="M925.9,403l2,2L925.9,403z"/>
<path fill="#888888" d="M1015.2,403l2,2L1015.2,403z"/>
<path fill="#787878" d="M904,405l2,2L904,405z"/>
<path fill="#989898" d="M923.9,405l2,2L923.9,405z"/>
<path fill="#686868" d="M1013.2,405l2,2L1013.2,405"/>
<path fill="#D7D7D7" d="M746.6,407.5l1.4,0.6L746.6,407.5z"/>
<path fill="#989898" d="M902,406.9l2,2L902,406.9z"/>
<path fill="#787878" d="M921.9,406.9l2,2L921.9,406.9z"/>
<path fill="#474747" d="M1011.2,406.9l2,2L1011.2,406.9z"/>
<path fill="#BDBDBD" d="M1041,406.9l2,2L1041,406.9 M458,410.3l0.6,1.4L458,410.3z"/>
<path fill="#686868" d="M919.9,408.9l2,2L919.9,408.9z"/>
<path fill="#A8A8A8" d="M1039,408.9l2,2L1039,408.9z"/>
<path fill="#A8A8A8" d="M717.4,410.9l2,2L717.4,410.9z"/>
<path fill="#474747" d="M917.9,410.9l2,2L917.9,410.9z"/>
<path fill="#C4C4C4" d="M955,411.5l1.4,0.6L955,411.5z"/>
<path fill="#A8A8A8" d="M1005.3,410.9l2,2L1005.3,410.9z"/>
<path fill="#787878" d="M1037,410.9l2,2L1037,410.9z"/>
<path fill="#474747" d="M458,414.3l0.6,1.4L458,414.3z"/>
<path fill="#686868" d="M495.1,412.9l2,2L495.1,412.9z"/>
<path fill="#A8A8A8" d="M803.4,414.3l0.6,1.4L803.4,414.3 M898.1,412.9l2,2L898.1,412.9z"/>
<path fill="#595959" d="M915.9,412.9l2,2L915.9,412.9z"/>
<path fill="#989898" d="M951.7,412.9l2,2L951.7,412.9z"/>
<path fill="#010101" d="M953.6,412.9l-2,13.9C959,422.6,962,417.7,953.6,412.9z"/>
<path fill="#989898" d="M957.6,412.9l2,2L957.6,412.9z"/>
<path fill="#474747" d="M1003.3,412.9l2,2L1003.3,412.9z"/>
<path fill="#595959" d="M1035,412.9l2,2L1035,412.9z"/>
<path fill="#989898" d="M391.3,415.5l1.4,0.6L391.3,415.5z"/>
<path fill="#595959" d="M393.8,414.9l6,2L393.8,414.9z"/>
<path fill="#595959" d="M431.6,414.9l7.9,2L431.6,414.9z"/>
<path fill="#595959" d="M741.2,414.9l2,2L741.2,414.9 M913.9,414.9l2,2L913.9,414.9z"/>
<path fill="#787878" d="M959.6,414.9l2,2L959.6,414.9z"/>
<path fill="#BDBDBD" d="M999.3,414.9l2,2L999.3,414.9 M380,416.9l2,2L380,416.9z"/>
<path fill="#3A3A3A" d="M383.3,417.5l1.4,0.6L383.3,417.5 M443.5,416.9l6,2L443.5,416.9z"/>
<path fill="#787878" d="M449.4,416.9l2,2L449.4,416.9z"/>
<path fill="#474747" d="M491.1,416.9l2,2L491.1,416.9z"/>
<path fill="#A8A8A8" d="M715.4,416.9l2,2L715.4,416.9z"/>
<path fill="#989898" d="M912,416.9l2,2L912,416.9z"/>
<path fill="#010101" d="M939.8,416.9l-6,13.9h9.9L939.8,416.9z"/>
<path fill="#BDBDBD" d="M941.7,416.9l2,2L941.7,416.9z"/>
<path fill="#A8A8A8" d="M949.7,416.9l2,2L949.7,416.9z"/>
<path fill="#595959" d="M997.3,416.9l2,2L997.3,416.9z"/>
<path fill="#888888" d="M374,418.9l2,2L374,418.9z"/>
<path fill="#191919" d="M443.5,418.9l13.9,2L443.5,418.9z"/>
<path fill="#474747" d="M715.4,418.9l2,2L715.4,418.9z"/>
<path fill="#BDBDBD" d="M828.6,418.9l2,2L828.6,418.9z"/>
<path fill="#A8A8A8" d="M896.1,418.9l2,2L896.1,418.9z"/>
<path fill="#474747" d="M937.8,418.9l2,2L937.8,418.9z"/>
<path fill="#262626" d="M943.7,418.9v6V418.9z"/>
<path fill="#888888" d="M950.3,420.2l0.6,1.4L950.3,420.2z"/>
<path fill="#A8A8A8" d="M993.3,418.9l2,2L993.3,418.9z"/>
<path fill="#787878" d="M368,420.8l2,2L368,420.8z"/>
<path fill="#787878" d="M739.3,420.8l2,2L739.3,420.8z"/>
<path fill="#595959" d="M896.1,420.8l6,4L896.1,420.8z"/>
<path fill="#989898" d="M906,420.8l2,2L906,420.8 M935.8,420.8l2,2L935.8,420.8z"/>
<path fill="#686868" d="M959.6,420.8l2,2L959.6,420.8z"/>
<path fill="#BDBDBD" d="M1029.1,420.8l2,2L1029.1,420.8 M362.1,422.8l2,2L362.1,422.8z"/>
<path fill="#888888" d="M477.2,422.8v6V422.8z"/>
<path fill="#A8A8A8" d="M483.2,422.8l2,2L483.2,422.8z"/>
<path fill="#787878" d="M514.9,422.8"/>
<path fill="#A8A8A8" d="M713.4,422.8l2,2L713.4,422.8z"/>
<path fill="#787878" d="M804.8,422.8l2,2L804.8,422.8z"/>
<path fill="#C4C4C4" d="M902,422.8l2,2L902,422.8 M933.8,422.8l2,2L933.8,422.8z"/>
<path fill="#474747" d="M957.6,422.8l2,2L957.6,422.8z"/>
<path fill="#888888" d="M987.4,422.8l2,2L987.4,422.8z"/>
<path fill="#BDBDBD" d="M1027.1,422.8l2,2L1027.1,422.8z"/>
<path fill="#A8A8A8" d="M358.1,424.8l2,2L358.1,424.8z"/>
<path fill="#686868" d="M481.2,424.8l2,2L481.2,424.8z"/>
<path fill="#474747" d="M713.4,424.8l2,2L713.4,424.8z"/>
<path fill="#595959" d="M830.6,424.8l2,2L830.6,424.8z"/>
<path fill="#787878" d="M943.7,424.8l2,2L943.7,424.8 M953.6,424.8l2,2L953.6,424.8z"/>
<path fill="#A8A8A8" d="M983.4,424.8l2,2L983.4,424.8 M354.1,426.8l2,2L354.1,426.8z"/>
<path fill="#686868" d="M509,426.8"/>
<path fill="#787878" d="M737.3,426.8l2,2L737.3,426.8z"/>
<path fill="#BDBDBD" d="M943.7,426.8l2,2L943.7,426.8z"/>
<path fill="#C4C4C4" d="M979.5,426.8l2,2L979.5,426.8z"/>
<path fill="#3A3A3A" d="M981.4,426.8l2,2L981.4,426.8z"/>
<path fill="#474747" d="M352.2,428.8l2,2L352.2,428.8z"/>
<path fill="#787878" d="M507,428.8l2,2L507,428.8z"/>
<path fill="#989898" d="M711.5,428.8l2,2L711.5,428.8 M832.6,428.8l2,2L832.6,428.8z"/>
<path fill="#686868" d="M977.5,428.8l2,2L977.5,428.8 M1019.2,428.8l2,2L1019.2,428.8z"/>
<path fill="#A8A8A8" d="M348.2,430.8l2,2L348.2,430.8z"/>
<path fill="#787878" d="M505,430.8l2,2L505,430.8z"/>
<path fill="#3A3A3A" d="M711.5,430.8l2,2L711.5,430.8z"/>
<path fill="#474747" d="M735.3,430.8l2,2L735.3,430.8z"/>
<path fill="#787878" d="M806.7,430.8l2,2L806.7,430.8z"/>
<path fill="#474747" d="M832.6,430.8l2,2L832.6,430.8z"/>
<path fill="#787878" d="M935.8,430.8l2,2L935.8,430.8z"/>
<path fill="#262626" d="M939.2,431.4l1.4,0.6L939.2,431.4z"/>
<path fill="#686868" d="M941.7,430.8l2,2L941.7,430.8z"/>
<path fill="#787878" d="M973.5,430.8l2,2L973.5,430.8z"/>
<path fill="#A8A8A8" d="M1017.2,430.8l2,2L1017.2,430.8z"/>
<path fill="#686868" d="M346.2,432.8l2,2L346.2,432.8 M503,432.8l2,2L503,432.8z"/>
<path fill="#888888" d="M969.5,432.8l2,2L969.5,432.8z"/>
<path fill="#686868" d="M501,434.7l2,2L501,434.7z"/>
<path fill="#595959" d="M709.5,434.7l2,2L709.5,434.7z"/>
<path fill="#BDBDBD" d="M834.5,434.7l2,2L834.5,434.7z"/>
<path fill="#888888" d="M965.6,434.7l2,2L965.6,434.7 M1011.2,434.7l2,2L1011.2,434.7z"/>
<path fill="#787878" d="M499.1,436.7l2,2L499.1,436.7z"/>
<path fill="#787878" d="M733.3,436.7l2,2L733.3,436.7z"/>
<path fill="#595959" d="M808.7,436.7l2,2L808.7,436.7z"/>
<path fill="#474747" d="M834.5,436.7v6V436.7z"/>
<path fill="#989898" d="M961.6,436.7l2,2L961.6,436.7z"/>
<path fill="#989898" d="M957.6,438.7l2,2L957.6,438.7z"/>
<path fill="#A8A8A8" d="M1005.3,438.7l2,2L1005.3,438.7z"/>
<path fill="#474747" d="M338.3,440.7l2,2L338.3,440.7z"/>
<path fill="#686868" d="M389.3,441.3l1.4,0.6L389.3,441.3z"/>
<path fill="#A8A8A8" d="M393.3,441.3l1.4,0.6L393.3,441.3z"/>
<path fill="#E8E8E8" d="M395.8,440.7l19.9,2L395.8,440.7z"/>
<path fill="#C4C4C4" d="M415.7,440.7l6,2L415.7,440.7z"/>
<path fill="#888888" d="M423,441.3l1.4,0.6L423,441.3z"/>
<path fill="#595959" d="M425.6,440.7l6,2L425.6,440.7z"/>
<path fill="#686868" d="M731.3,440.7l2,2L731.3,440.7z"/>
<path fill="#888888" d="M953.6,440.7l2,2L953.6,440.7z"/>
<path fill="#787878" d="M1001.3,440.7l2,2L1001.3,440.7 M336.3,442.7l2,2L336.3,442.7z"/>
<path fill="#595959" d="M378,442.7l2,2L378,442.7z"/>
<path fill="#D7D7D7" d="M381.3,443.3l1.4,0.6L381.3,443.3 M435.5,442.7l6,2L435.5,442.7z"/>
<path fill="#787878" d="M441.5,442.7l2,2L441.5,442.7z"/>
<path fill="#262626" d="M444.9,443.3l1.4,0.6L444.9,443.3z"/>
<path fill="#888888" d="M808.7,442.7l2,2L808.7,442.7 M834.5,442.7l2,2L834.5,442.7z"/>
<path fill="#787878" d="M949.7,442.7l2,2L949.7,442.7z"/>
<path fill="#595959" d="M997.3,442.7l2,2L997.3,442.7z"/>
<path fill="#3A3A3A" d="M370,444.7l2,2L370,444.7z"/>
<path fill="#989898" d="M372,444.7l2,2L372,444.7z"/>
<path fill="#BDBDBD" d="M451.4,444.7l2,2L451.4,444.7z"/>
<path fill="#787878" d="M453.4,444.7l2,2L453.4,444.7z"/>
<path fill="#595959" d="M729.3,444.7l2,2L729.3,444.7z"/>
<path fill="#BDBDBD" d="M800.8,444.7l2,2L800.8,444.7z"/>
<path fill="#686868" d="M802.8,444.7l2,2L802.8,444.7z"/>
<path fill="#595959" d="M945.7,444.7l2,2L945.7,444.7z"/>
<path fill="#474747" d="M993.3,444.7l2,2L993.3,444.7z"/>
<path fill="#787878" d="M366.1,446.7l2,2L366.1,446.7z"/>
<path fill="#BDBDBD" d="M461.3,446.7l2,2L461.3,446.7z"/>
<path fill="#474747" d="M464.7,447.2l1.4,0.6L464.7,447.2z"/>
<path fill="#A8A8A8" d="M703.5,446.7l2,2L703.5,446.7z"/>
<path fill="#C4C4C4" d="M792.9,446.7l2,2L792.9,446.7z"/>
<path fill="#888888" d="M794.8,446.7l2,2L794.8,446.7z"/>
<path fill="#A8A8A8" d="M832.6,446.7l2,2L832.6,446.7z"/>
<path fill="#BDBDBD" d="M939.8,446.7l2,2L939.8,446.7z"/>
<path fill="#474747" d="M941.7,446.7l2,2L941.7,446.7 M989.4,446.7l2,2L989.4,446.7z"/>
<path fill="#C4C4C4" d="M991.4,446.7l2,2L991.4,446.7z"/>
<path fill="#989898" d="M332.3,448.6l2,2L332.3,448.6 M362.1,448.6l2,2L362.1,448.6 M471.3,448.6l2,2L471.3,448.6z"/>
<path fill="#595959" d="M473.3,448.6l2,2L473.3,448.6z"/>
<path fill="#3A3A3A" d="M497.1,448.6"/>
<path fill="#888888" d="M786.9,448.6l2,2L786.9,448.6z"/>
<path fill="#989898" d="M830.6,448.6l2,2L830.6,448.6 M935.8,448.6l2,2L935.8,448.6z"/>
<path fill="#3A3A3A" d="M985.4,448.6l2,2L985.4,448.6z"/>
<path fill="#BDBDBD" d="M479.2,450.6l2,2L479.2,450.6z"/>
<path fill="#989898" d="M731.3,450.6l2,2L731.3,450.6z"/>
<path fill="#C4C4C4" d="M775,450.6l2,2L775,450.6z"/>
<path fill="#686868" d="M778.4,451.2l1.4,0.6L778.4,451.2z"/>
<path fill="#989898" d="M828.6,450.6l2,2L828.6,450.6z"/>
<path fill="#595959" d="M931.8,450.6l2,2L931.8,450.6z"/>
<path fill="#686868" d="M981.4,450.6l2,2L981.4,450.6z"/>
<path fill="#BDBDBD" d="M330.3,452.6l2,2L330.3,452.6 M487.1,452.6l2,2L487.1,452.6z"/>
<path fill="#595959" d="M701.5,452.6l2,2L701.5,452.6z"/>
<path fill="#474747" d="M738.7,453.2l1.4,0.6L738.7,453.2z"/>
<path fill="#989898" d="M742.6,453.2l1.4,0.6L742.6,453.2z"/>
<path fill="#D7D7D7" d="M745.2,452.6l13.9,2L745.2,452.6z"/>
<path fill="#A8A8A8" d="M759.1,452.6l6,2L759.1,452.6z"/>
<path fill="#595959" d="M766.5,453.2l1.4,0.6L766.5,453.2z"/>
<path fill="#888888" d="M925.9,452.6l2,2L925.9,452.6z"/>
<path fill="#686868" d="M977.5,452.6l2,2L977.5,452.6z"/>
<path fill="#686868" d="M822.6,454.6l2,2L822.6,454.6z"/>
<path fill="#BDBDBD" d="M919.9,454.6l2,2L919.9,454.6z"/>
<path fill="#474747" d="M921.9,454.6l2,2L921.9,454.6z"/>
<path fill="#888888" d="M973.5,454.6l2,2L973.5,454.6z"/>
<path fill="#3A3A3A" d="M818.7,456.6l2,2L818.7,456.6z"/>
<path fill="#C4C4C4" d="M820.6,456.6l2,2L820.6,456.6z"/>
<path fill="#686868" d="M915.9,456.6l2,2L915.9,456.6z"/>
<path fill="#474747" d="M967.5,456.6l2,2L967.5,456.6z"/>
<path fill="#BDBDBD" d="M969.5,456.6l2,2L969.5,456.6z"/>
<path fill="#A8A8A8" d="M816.7,458.6l2,2L816.7,458.6z"/>
<path fill="#787878" d="M910,458.6l2,2L910,458.6 M963.6,458.6l2,2L963.6,458.6 M328.9,461.9l0.6,1.4L328.9,461.9z"/>
<path fill="#989898" d="M812.7,460.5l2,2L812.7,460.5z"/>
<path fill="#787878" d="M904,460.5l2,2L904,460.5z"/>
<path fill="#989898" d="M959.6,460.5l2,2L959.6,460.5z"/>
<path fill="#3A3A3A" d="M350.2,462.5l2,2L350.2,462.5z"/>
<path fill="#989898" d="M697.6,462.5l2,2L697.6,462.5z"/>
<path fill="#888888" d="M808.7,462.5l2,2L808.7,462.5z"/>
<path fill="#A8A8A8" d="M896.1,462.5l2,2L896.1,462.5z"/>
<path fill="#595959" d="M898.1,462.5l2,2L898.1,462.5 M953.6,462.5l2,2L953.6,462.5z"/>
<path fill="#BDBDBD" d="M350.2,464.5l2,2L350.2,464.5z"/>
<path fill="#474747" d="M697.6,464.5l2,2L697.6,464.5z"/>
<path fill="#989898" d="M804.8,464.5l2,2L804.8,464.5 M890.1,464.5l2,2L890.1,464.5z"/>
<path fill="#888888" d="M949.7,464.5l2,2L949.7,464.5z"/>
<path fill="#3A3A3A" d="M798.8,466.5l2,2L798.8,466.5z"/>
<path fill="#A8A8A8" d="M800.8,466.5l2,2L800.8,466.5z"/>
<path fill="#3A3A3A" d="M943.7,466.5l2,2L943.7,466.5z"/>
<path fill="#BDBDBD" d="M945.7,466.5l2,2L945.7,466.5z"/>
<path fill="#787878" d="M348.2,468.5l2,2L348.2,468.5z"/>
<path fill="#3A3A3A" d="M709.5,468.5l2,2L709.5,468.5z"/>
<path fill="#A8A8A8" d="M711.5,468.5l2,2L711.5,468.5z"/>
<path fill="#686868" d="M713.4,468.5l2,2L713.4,468.5 M794.8,468.5l2,2L794.8,468.5 M939.8,468.5l2,2L939.8,468.5z"/>
<path fill="#787878" d="M695.6,470.5v7.9V470.5z"/>
<path fill="#888888" d="M707.5,470.5l2,2L707.5,470.5z"/>
<path fill="#A8A8A8" d="M717.4,470.5l2,2L717.4,470.5z"/>
<path fill="#595959" d="M719.4,470.5l2,2L719.4,470.5z"/>
<path fill="#3A3A3A" d="M788.9,470.5l2,2L788.9,470.5z"/>
<path fill="#A8A8A8" d="M790.9,470.5l2,2L790.9,470.5z"/>
<path fill="#595959" d="M886.2,470.5l2,2L886.2,470.5z"/>
<path fill="#888888" d="M935.8,470.5l2,2L935.8,470.5z"/>
<path fill="#989898" d="M326.4,472.5l2,2L326.4,472.5z"/>
<path fill="#888888" d="M705.5,472.5l2,2L705.5,472.5z"/>
<path fill="#A8A8A8" d="M723.4,472.5l2,2L723.4,472.5z"/>
<path fill="#474747" d="M725.4,472.5l2,2L725.4,472.5z"/>
<path fill="#888888" d="M784.9,472.5l2,2L784.9,472.5z"/>
<path fill="#BDBDBD" d="M884.2,472.5l2,2L884.2,472.5z"/>
<path fill="#3A3A3A" d="M929.8,472.5l2,2L929.8,472.5z"/>
<path fill="#A8A8A8" d="M931.8,472.5l2,2L931.8,472.5z"/>
<path fill="#595959" d="M326.4,474.4l2,2L326.4,474.4 M346.2,474.4l2,2L346.2,474.4z"/>
<path fill="#3A3A3A" d="M703.5,474.4l2,2L703.5,474.4z"/>
<path fill="#BDBDBD" d="M729.3,474.4l2,2L729.3,474.4z"/>
<path fill="#595959" d="M731.3,474.4l2,2L731.3,474.4z"/>
<path fill="#686868" d="M779,474.4l2,2L779,474.4z"/>
<path fill="#474747" d="M925.9,474.4l2,2L925.9,474.4z"/>
<path fill="#C4C4C4" d="M927.8,474.4l2,2L927.8,474.4z"/>
<path fill="#BDBDBD" d="M346.8,477.8l0.6,1.4L346.8,477.8z"/>
<path fill="#A8A8A8" d="M737.3,476.4l2,2L737.3,476.4z"/>
<path fill="#686868" d="M739.3,476.4l2,2L739.3,476.4z"/>
<path fill="#474747" d="M771,476.4l2,2L771,476.4z"/>
<path fill="#888888" d="M773,476.4l2,2L773,476.4z"/>
<path fill="#595959" d="M882.2,476.4l2,2L882.2,476.4z"/>
<path fill="#474747" d="M921.9,476.4l2,2L921.9,476.4z"/>
<path fill="#C4C4C4" d="M324.4,478.4l2,2L324.4,478.4z"/>
<path fill="#787878" d="M699,479l1.4,0.6L699,479z"/>
<path fill="#D7D7D7" d="M746.6,479l1.4,0.6L746.6,479z"/>
<path fill="#D7D7D7" d="M764.5,479l1.4,0.6L764.5,479z"/>
<path fill="#C4C4C4" d="M880.2,478.4l2,2L880.2,478.4z"/>
<path fill="#595959" d="M917.9,478.4l2,2L917.9,478.4z"/>
<path fill="#3A3A3A" d="M913.9,480.4l2,2L913.9,480.4z"/>
<path fill="#BDBDBD" d="M322.4,482.4l2,2L322.4,482.4z"/>
<path fill="#595959" d="M393.8,482.4l2,2L393.8,482.4z"/>
<path fill="#262626" d="M397.2,483l1.4,0.6L397.2,483z"/>
<path fill="#989898" d="M399.8,482.4l2,2L399.8,482.4z"/>
<path fill="#787878" d="M878.2,482.4l2,2L878.2,482.4z"/>
<path fill="#BDBDBD" d="M912,482.4l2,2L912,482.4z"/>
<path fill="#989898" d="M238.4,485l1.4,0.6L238.4,485z"/>
<path fill="#595959" d="M242.4,485l1.4,0.6L242.4,485z"/>
<path fill="#3A3A3A" d="M262.8,484.4l9.9,2L262.8,484.4z"/>
<path fill="#595959" d="M272.8,484.4l6,2L272.8,484.4z"/>
<path fill="#989898" d="M280.1,485l1.4,0.6L280.1,485z"/>
<path fill="#BDBDBD" d="M282.7,484.4l9.9,2L282.7,484.4z"/>
<path fill="#010101" d="M401.8,510.2c-6.6,3-10.5,5.6-13.9,11.9c20.2,5.4,31-15.3,27.8,15.9c11.3-0.8,36.5-37.1,37.7-2
	c12.9-3.8,7.3-12.7,14.7-20.8c6.6-7.3,38.5-7.3,19.1-22.6l-7.9-4.2c-13.9,18.1-37.5,29.8-59.6,17.1c-6.4-3.6-17.5-23-25.2-19.9
	C385.3,489.5,399.2,505.6,401.8,510.2z"/>
<path fill="#888888" d="M908,484.4l2,2L908,484.4 M229.1,486.4l2,2L229.1,486.4z"/>
<path fill="#474747" d="M301.9,486.9l1.4,0.6L301.9,486.9z"/>
<path fill="#BDBDBD" d="M305.9,486.9l1.4,0.6L305.9,486.9z"/>
<path fill="#474747" d="M344.2,486.4v15.9C346.6,496.7,346.6,491.9,344.2,486.4z"/>
<path fill="#A8A8A8" d="M388.5,487.7l0.6,1.4L388.5,487.7z"/>
<path fill="#888888" d="M401.8,486.4l2,2L401.8,486.4z"/>
<path fill="#474747" d="M876.2,486.4l2,2L876.2,486.4 M904,486.4l2,2L904,486.4z"/>
<path fill="#888888" d="M223.1,488.3l2,2L223.1,488.3z"/>
<path fill="#787878" d="M315.8,488.9l1.4,0.6L315.8,488.9z"/>
<path fill="#BDBDBD" d="M477.2,488.3l2,2L477.2,488.3z"/>
<path fill="#3A3A3A" d="M481.2,488.3l2,2L481.2,488.3z"/>
<path fill="#BDBDBD" d="M483.2,488.3l2,2L483.2,488.3z"/>
<path fill="#A8A8A8" d="M874.2,488.3l2,2L874.2,488.3z"/>
<path fill="#989898" d="M902,488.3l2,2L902,488.3z"/>
<path fill="#888888" d="M219.2,490.3l2,2L219.2,490.3z"/>
<path fill="#A8A8A8" d="M403.8,490.3l2,2L403.8,490.3z"/>
<path fill="#686868" d="M485.2,490.3l2,2L485.2,490.3z"/>
<path fill="#888888" d="M389.9,492.3l2,2L389.9,492.3 M475.2,492.3l2,2L475.2,492.3z"/>
<path fill="#3A3A3A" d="M487.1,492.3l2,2L487.1,492.3z"/>
<path fill="#888888" d="M872.3,492.3l2,2L872.3,492.3z"/>
<path fill="#686868" d="M896.1,492.3l2,2L896.1,492.3z"/>
<path fill="#D7D7D7" d="M217.2,494.3v6V494.3z"/>
<path fill="#787878" d="M405.8,494.3l2,2L405.8,494.3z"/>
<path fill="#BDBDBD" d="M473.3,494.3l2,2L473.3,494.3z"/>
<path fill="#989898" d="M894.1,494.3l2,2L894.1,494.3z"/>
<path fill="#BDBDBD" d="M407.7,496.3l2,2L407.7,496.3z"/>
<path fill="#686868" d="M870.3,496.3l2,2L870.3,496.3z"/>
<path fill="#989898" d="M393.8,498.3l2,2L393.8,498.3z"/>
<path fill="#C4C4C4" d="M409.7,498.3l2,2L409.7,498.3z"/>
<path fill="#BDBDBD" d="M469.3,498.3l2,2L469.3,498.3z"/>
<path fill="#686868" d="M892.1,498.3l2,2L892.1,498.3z"/>
<path fill="#595959" d="M395.8,500.2l2,2L395.8,500.2z"/>
<path fill="#BDBDBD" d="M411.7,500.2l2,2L411.7,500.2z"/>
<path fill="#989898" d="M467.3,500.2l2,2L467.3,500.2z"/>
<path fill="#474747" d="M868.3,500.2l2,2L868.3,500.2z"/>
<path fill="#191919" d="M344.2,502.2V528C347.4,520.5,347.4,509.8,344.2,502.2z"/>
<path fill="#888888" d="M413.7,502.2l2,2L413.7,502.2z"/>
<path fill="#3A3A3A" d="M465.3,502.2l2,2L465.3,502.2z"/>
<path fill="#C4C4C4" d="M866.3,502.2l2,2L866.3,502.2z"/>
<path fill="#787878" d="M219.2,504.2l2,2L219.2,504.2z"/>
<path fill="#A8A8A8" d="M397.8,504.2l2,2L397.8,504.2z"/>
<path fill="#BDBDBD" d="M417.7,504.2l2,2L417.7,504.2z"/>
<path fill="#787878" d="M461.3,504.2l2,2L461.3,504.2z"/>
<path fill="#989898" d="M890.1,504.2l2,2L890.1,504.2z"/>
<path fill="#A8A8A8" d="M252.9,506.2l2,2L252.9,506.2z"/>
<path fill="#FFFFFF" d="M250.9,508.2c7.5,16.1,31,40.9,49.6,43.3c15.3,1.8,41.5-19.7,34.5-36.7c-3-6.9-14.3-6.6-20.6-6.6
	C294.6,508,270,503.8,250.9,508.2z"/>
<path fill="#989898" d="M264.8,506.2l2,2L264.8,506.2z"/>
<path fill="#3A3A3A" d="M268.2,506.8l1.4,0.6L268.2,506.8z"/>
<path fill="#474747" d="M284.7,506.2l9.9,2L284.7,506.2z"/>
<path fill="#787878" d="M294.6,506.2l19.9,2L294.6,506.2z"/>
<path fill="#3A3A3A" d="M314.4,506.2l6,2L314.4,506.2 M399.8,506.2l2,2L399.8,506.2z"/>
<path fill="#989898" d="M421.6,506.2l2,2L421.6,506.2z"/>
<path fill="#C4C4C4" d="M455.4,506.2l2,2L455.4,506.2z"/>
<path fill="#595959" d="M457.4,506.2l2,2L457.4,506.2z"/>
<path fill="#787878" d="M477.2,506.2l2,2L477.2,506.2z"/>
<path fill="#BDBDBD" d="M479.2,506.2l2,2L479.2,506.2 M864.3,506.2l2,2L864.3,506.2z"/>
<path fill="#A8A8A8" d="M326.4,508.2l2,2L326.4,508.2z"/>
<path fill="#595959" d="M328.3,508.2l2,2L328.3,508.2z"/>
<path fill="#C4C4C4" d="M399.8,508.2l2,2L399.8,508.2z"/>
<path fill="#474747" d="M425.6,508.2l2,2L425.6,508.2z"/>
<path fill="#989898" d="M427.6,508.2l2,2L427.6,508.2z"/>
<path fill="#D7D7D7" d="M446.8,508.8l1.4,0.6L446.8,508.8z"/>
<path fill="#989898" d="M449.4,508.2l2,2L449.4,508.2z"/>
<path fill="#595959" d="M451.4,508.2l2,2L451.4,508.2z"/>
<path fill="#686868" d="M888.1,508.2l2,2L888.1,508.2z"/>
<path fill="#A8A8A8" d="M221.1,510.2l2,2L221.1,510.2z"/>
<path fill="#888888" d="M248.9,510.2l2,2L248.9,510.2z"/>
<path fill="#787878" d="M334.3,510.2l2,2L334.3,510.2z"/>
<path fill="#989898" d="M397.8,510.2l2,2L397.8,510.2 M471.3,510.2l2,2L471.3,510.2z"/>
<path fill="#989898" d="M862.3,510.2l2,2L862.3,510.2z"/>
<path fill="#C4C4C4" d="M888.1,510.2l2,2L888.1,510.2z"/>
<path fill="#888888" d="M250.9,512.2l2,2L250.9,512.2z"/>
<path fill="#3A3A3A" d="M336.3,512.2v6V512.2z"/>
<path fill="#787878" d="M393.8,512.2l2,2L393.8,512.2z"/>
<path fill="#3A3A3A" d="M886.2,512.2l2,2L886.2,512.2z"/>
<path fill="#BDBDBD" d="M223.1,514.1l2,2L223.1,514.1z"/>
<path fill="#474747" d="M252.9,514.1l2,2L252.9,514.1z"/>
<path fill="#888888" d="M389.9,514.1l2,2L389.9,514.1z"/>
<path fill="#989898" d="M411.7,514.1l2,2L411.7,514.1z"/>
<path fill="#686868" d="M465.3,514.1l2,2L465.3,514.1z"/>
<path fill="#BDBDBD" d="M489.1,514.1l2,2L489.1,514.1z"/>
<path fill="#888888" d="M860.3,514.1l2,2L860.3,514.1z"/>
<path fill="#A8A8A8" d="M886.2,514.1l2,2L886.2,514.1z"/>
<path fill="#595959" d="M225.1,516.1l2,2L225.1,516.1z"/>
<path fill="#686868" d="M387.9,516.1l2,2L387.9,516.1z"/>
<path fill="#474747" d="M415.7,516.1l2,2L415.7,516.1z"/>
<path fill="#686868" d="M463.3,516.1l2,2L463.3,516.1 M417.7,518.1v7.9V518.1z"/>
<path fill="#888888" d="M858.4,518.1l2,2L858.4,518.1z"/>
<path fill="#787878" d="M884.2,518.1l2,2L884.2,518.1z"/>
<path fill="#A8A8A8" d="M385.9,520.1l2,2L385.9,520.1z"/>
<path fill="#595959" d="M401.8,520.1l2,2L401.8,520.1z"/>
<path fill="#787878" d="M431.6,520.1l19.9,2L431.6,520.1 M229.1,522.1l2,2L229.1,522.1z"/>
<path fill="#A8A8A8" d="M334.3,522.1l2,2L334.3,522.1z"/>
<path fill="#474747" d="M387.9,522.1l2,2L387.9,522.1z"/>
<path fill="#BDBDBD" d="M399.8,522.1l2,2L399.8,522.1z"/>
<path fill="#474747" d="M452,523.5l0.6,1.4L452,523.5z"/>
<path fill="#787878" d="M856.4,522.1l2,2L856.4,522.1z"/>
<path fill="#686868" d="M882.2,522.1l2,2L882.2,522.1z"/>
<path fill="#3A3A3A" d="M231.1,524.1l2,2L231.1,524.1z"/>
<path fill="#595959" d="M334.3,524.1l2,2L334.3,524.1z"/>
<path fill="#A8A8A8" d="M387.9,524.1l2,2L387.9,524.1z"/>
<path fill="#3A3A3A" d="M391.3,524.7l1.4,0.6L391.3,524.7z"/>
<path fill="#787878" d="M393.8,524.1l2,2L393.8,524.1z"/>
<path fill="#BDBDBD" d="M395.8,524.1l2,2L395.8,524.1z"/>
<path fill="#888888" d="M429.6,524.1l2,2L429.6,524.1z"/>
<path fill="#3A3A3A" d="M264.8,526.1l2,2L264.8,526.1z"/>
<path fill="#787878" d="M451.4,526.1v6V526.1z"/>
<path fill="#A8A8A8" d="M465.3,526.1v6V526.1z"/>
<path fill="#787878" d="M854.4,526.1l2,2L854.4,526.1z"/>
<path fill="#474747" d="M880.2,526.1l2,2L880.2,526.1 M266.8,528l2,2L266.8,528z"/>
<path fill="#A8A8A8" d="M332.3,528l2,2L332.3,528z"/>
<path fill="#595959" d="M344.2,528v6V528z"/>
<path fill="#686868" d="M415.7,528l2,2L415.7,528z"/>
<path fill="#C4C4C4" d="M880.2,528l2,2L880.2,528 M235,530l2,2L235,530z"/>
<path fill="#595959" d="M268.8,530l2,2L268.8,530z"/>
<path fill="#474747" d="M427.6,530l2,2L427.6,530z"/>
<path fill="#787878" d="M852.4,530l2,2L852.4,530z"/>
<path fill="#3A3A3A" d="M878.2,530l2,2L878.2,530z"/>
<path fill="#A8A8A8" d="M237,532l2,2L237,532z"/>
<path fill="#787878" d="M270.8,532l2,2L270.8,532z"/>
<path fill="#A8A8A8" d="M330.3,532l2,2L330.3,532z"/>
<path fill="#474747" d="M413.7,532v6V532z"/>
<path fill="#A8A8A8" d="M427.6,532l2,2L427.6,532z"/>
<path fill="#C4C4C4" d="M451.4,532l2,2L451.4,532z"/>
<path fill="#BDBDBD" d="M878.2,532l2,2L878.2,532z"/>
<path fill="#989898" d="M239,534l2,2L239,534z"/>
<path fill="#888888" d="M272.8,534l2,2L272.8,534z"/>
<path fill="#D7D7D7" d="M344.8,535.4l0.6,1.4L344.8,535.4z"/>
<path fill="#787878" d="M850.4,534l2,2L850.4,534z"/>
<path fill="#989898" d="M241,536l2,2L241,536z"/>
<path fill="#888888" d="M274.7,536l2,2L274.7,536z"/>
<path fill="#686868" d="M328.3,536l2,2L328.3,536z"/>
<path fill="#888888" d="M425.6,536l2,2L425.6,536z"/>
<path fill="#A8A8A8" d="M876.2,536l2,2L876.2,536 M243,538l2,2L243,538z"/>
<path fill="#888888" d="M276.7,538l2,2L276.7,538z"/>
<path fill="#A8A8A8" d="M326.4,538l2,2L326.4,538z"/>
<path fill="#3A3A3A" d="M421,538.6l1.4,0.6L421,538.6z"/>
<path fill="#A8A8A8" d="M423.6,538l2,2L423.6,538z"/>
<path fill="#686868" d="M848.4,538l2,2L848.4,538z"/>
<path fill="#989898" d="M245,540l2,2L245,540z"/>
<path fill="#686868" d="M278.7,540l2,2L278.7,540z"/>
<path fill="#C4C4C4" d="M324.4,540l2,2L324.4,540z"/>
<path fill="#595959" d="M340.2,540l2,2L340.2,540z"/>
<path fill="#A8A8A8" d="M874.2,540l2,2L874.2,540z"/>
<path fill="#BDBDBD" d="M246.9,541.9l2,2L246.9,541.9z"/>
<path fill="#3A3A3A" d="M280.7,541.9l2,2L280.7,541.9z"/>
<path fill="#C4C4C4" d="M322.4,541.9l2,2L322.4,541.9z"/>
<path fill="#A8A8A8" d="M338.3,541.9l2,2L338.3,541.9z"/>
<path fill="#595959" d="M846.5,541.9l2,2L846.5,541.9z"/>
<path fill="#C4C4C4" d="M248.9,543.9l2,2L248.9,543.9z"/>
<path fill="#BDBDBD" d="M320.4,543.9l2,2L320.4,543.9 M336.3,543.9l2,2L336.3,543.9z"/>
<path fill="#A8A8A8" d="M872.3,543.9l2,2L872.3,543.9z"/>
<path fill="#989898" d="M286.7,545.9l2,2L286.7,545.9z"/>
<path fill="#787878" d="M318.4,545.9l2,2L318.4,545.9z"/>
<path fill="#BDBDBD" d="M334.3,545.9l2,2L334.3,545.9z"/>
<path fill="#474747" d="M844.5,545.9l2,2L844.5,545.9 M254.9,547.9l2,2L254.9,547.9z"/>
<path fill="#3A3A3A" d="M288.6,547.9l2,2L288.6,547.9z"/>
<path fill="#A8A8A8" d="M290.6,547.9l2,2L290.6,547.9z"/>
<path fill="#C4C4C4" d="M314.4,547.9l2,2L314.4,547.9z"/>
<path fill="#BDBDBD" d="M332.3,547.9l2,2L332.3,547.9z"/>
<path fill="#C4C4C4" d="M842.5,547.9l2,2L842.5,547.9z"/>
<path fill="#BDBDBD" d="M870.3,547.9l2,2L870.3,547.9z"/>
<path fill="#888888" d="M256.9,549.9l2,2L256.9,549.9z"/>
<path fill="#989898" d="M294.6,549.9l2,2L294.6,549.9z"/>
<path fill="#A8A8A8" d="M310.5,549.9l2,2L310.5,549.9z"/>
<path fill="#3A3A3A" d="M312.5,549.9l2,2L312.5,549.9z"/>
<path fill="#888888" d="M330.3,549.9l2,2L330.3,549.9z"/>
<path fill="#3A3A3A" d="M868.3,549.9l2,2L868.3,549.9z"/>
<path fill="#BDBDBD" d="M258.9,551.9l2,2L258.9,551.9z"/>
<path fill="#595959" d="M300.5,551.9l6,2L300.5,551.9z"/>
<path fill="#686868" d="M328.3,551.9l2,2L328.3,551.9z"/>
<path fill="#3A3A3A" d="M262.8,553.8l2,2L262.8,553.8z"/>
<path fill="#474747" d="M326.4,553.8l2,2L326.4,553.8z"/>
<path fill="#595959" d="M866.3,553.8l2,2L866.3,553.8z"/>
<path fill="#888888" d="M264.8,555.8l2,2L264.8,555.8z"/>
<path fill="#474747" d="M324.4,555.8l2,2L324.4,555.8 M731.3,555.8l-2,4L731.3,555.8z"/>
<path fill="#A8A8A8" d="M838.5,555.8l2,2L838.5,555.8z"/>
<path fill="#010101" d="M796.8,630.3c-77.4,57.6-215.7,97.7-308.2,72.5c-34.9-9.5-67.9-28.2-95.3-51.8c-7.7-6.7-22-27.8-33.7-21.6
	c-22.2,11.5-5,24,7.9,34.1c24.6,19.3,50,38.7,79.4,50c83.2,32.2,171.9,27.8,254.1-4.8c38.5-15.3,73.4-35.7,103-63.5
	c-0.8-0.6,15.2-11.2,14.6-12"/>
<path fill="#686868" d="M322.4,557.8l2,2L322.4,557.8z"/>
<path fill="#474747" d="M735.3,557.8l2,2L735.3,557.8z"/>
<path fill="#787878" d="M864.3,557.8l2,2L864.3,557.8 M270.8,559.8l2,2L270.8,559.8z"/>
<path fill="#A8A8A8" d="M320.4,559.8l2,2L320.4,559.8 M727.3,559.8l2,2L727.3,559.8 M737.9,561.2l0.6,1.4L737.9,561.2z"/>
<path fill="#888888" d="M836.5,559.8l2,2L836.5,559.8z"/>
<path fill="#3A3A3A" d="M274.7,561.8l2,2L274.7,561.8z"/>
<path fill="#888888" d="M316.4,561.8l2,2L316.4,561.8z"/>
<path fill="#A8A8A8" d="M862.3,561.8l2,2L862.3,561.8 M276.7,563.8l2,2L276.7,563.8 M314.4,563.8l2,2L314.4,563.8z"/>
<path fill="#686868" d="M834.5,563.8l2,2L834.5,563.8z"/>
<path fill="#474747" d="M860.3,563.8l2,2L860.3,563.8z"/>
<path fill="#888888" d="M280.7,565.8l2,2L280.7,565.8z"/>
<path fill="#686868" d="M735.3,565.8l2,2L735.3,565.8 M284.7,567.7l2,2L284.7,567.7z"/>
<path fill="#3A3A3A" d="M316.4,567.7l2,2L316.4,567.7z"/>
<path fill="#3A3A3A" d="M832.6,567.7l2,2L832.6,567.7z"/>
<path fill="#888888" d="M858.4,567.7l2,2L858.4,567.7z"/>
<path fill="#595959" d="M288.6,569.7l2,2L288.6,569.7z"/>
<path fill="#787878" d="M318.4,569.7l2,2L318.4,569.7z"/>
<path fill="#BDBDBD" d="M830.6,569.7l2,2L830.6,569.7z"/>
<path fill="#595959" d="M292.6,571.7l2,2L292.6,571.7z"/>
<path fill="#BDBDBD" d="M320.4,571.7l2,2L320.4,571.7z"/>
<path fill="#686868" d="M828.6,573.7l2,2L828.6,573.7 M854.4,573.7l2,2L854.4,573.7z"/>
<path fill="#888888" d="M294.6,575.7l2,2L294.6,575.7z"/>
<path fill="#C4C4C4" d="M826.6,575.7l2,2L826.6,575.7z"/>
<path fill="#787878" d="M324.4,577.7l2,2L324.4,577.7z"/>
<path fill="#C4C4C4" d="M852.4,577.7l2,2L852.4,577.7z"/>
<path fill="#787878" d="M296.6,579.7l2,2L296.6,579.7z"/>
<path fill="#BDBDBD" d="M326.4,579.7l2,2L326.4,579.7z"/>
<path fill="#989898" d="M824.6,579.7l2,2L824.6,579.7z"/>
<path fill="#787878" d="M850.4,579.7l2,2L850.4,579.7z"/>
<path fill="#474747" d="M732.7,582.2l1.4,0.6L732.7,582.2z"/>
<path fill="#787878" d="M298.6,583.6l2,2L298.6,583.6z"/>
<path fill="#3A3A3A" d="M735.3,583.6l2,2L735.3,583.6 M822.6,583.6l2,2L822.6,583.6z"/>
<path fill="#787878" d="M330.3,585.6l2,2L330.3,585.6z"/>
<path fill="#989898" d="M820.6,585.6l2,2L820.6,585.6 M846.5,585.6l2,2L846.5,585.6z"/>
<path fill="#787878" d="M300.5,587.6l2,2L300.5,587.6z"/>
<path fill="#BDBDBD" d="M332.3,587.6l2,2L332.3,587.6z"/>
<path fill="#595959" d="M737.3,587.6l2,2L737.3,587.6z"/>
<path fill="#474747" d="M844.5,587.6l2,2L844.5,587.6z"/>
<path fill="#C4C4C4" d="M737.3,589.6l2,2L737.3,589.6z"/>
<path fill="#474747" d="M735.3,591.6l2,2L735.3,591.6z"/>
<path fill="#787878" d="M816.7,591.6l2,2L816.7,591.6z"/>
<path fill="#BDBDBD" d="M842.5,591.6l2,2L842.5,591.6z"/>
<path fill="#3A3A3A" d="M304.5,593.5l2,2L304.5,593.5z"/>
<path fill="#474747" d="M336.3,593.5l2,2L336.3,593.5z"/>
<path fill="#686868" d="M840.5,593.5l2,2L840.5,593.5z"/>
<path fill="#C4C4C4" d="M304.5,595.5l2,2L304.5,595.5z"/>
<path fill="#787878" d="M338.3,595.5l2,2L338.3,595.5z"/>
<path fill="#595959" d="M306.5,597.5l2,2L306.5,597.5z"/>
<path fill="#A8A8A8" d="M340.2,597.5l2,2L340.2,597.5z"/>
<path fill="#3A3A3A" d="M812.7,597.5l2,2L812.7,597.5z"/>
<path fill="#888888" d="M810.7,599.5l2,2L810.7,599.5z"/>
<path fill="#A8A8A8" d="M836.5,599.5l2,2L836.5,599.5z"/>
<path fill="#989898" d="M308.5,601.5l2,2L308.5,601.5z"/>
<path fill="#A8A8A8" d="M808.7,601.5l2,2L808.7,601.5z"/>
<path fill="#595959" d="M834.5,601.5l2,2L834.5,601.5z"/>
<path fill="#3A3A3A" d="M310.5,603.5l2,2L310.5,603.5z"/>
<path fill="#474747" d="M346.2,605.5l2,2L346.2,605.5z"/>
<path fill="#989898" d="M312.5,607.4l2,2L312.5,607.4z"/>
<path fill="#686868" d="M348.2,607.4l2,2L348.2,607.4z"/>
<path fill="#A8A8A8" d="M830.6,607.4l2,2L830.6,607.4z"/>
<path fill="#474747" d="M314.4,609.4l2,2L314.4,609.4z"/>
<path fill="#888888" d="M350.2,609.4l2,2L350.2,609.4z"/>
<path fill="#474747" d="M802.8,609.4l2,2L802.8,609.4z"/>
<path fill="#787878" d="M828.6,609.4l2,2L828.6,609.4z"/>
<path fill="#A8A8A8" d="M352.2,611.4l2,2L352.2,611.4z"/>
<path fill="#595959" d="M800.8,611.4l2,2L800.8,611.4z"/>
<path fill="#BDBDBD" d="M316.4,613.4l2,2L316.4,613.4 M354.1,613.4l2,2L354.1,613.4z"/>
<path fill="#787878" d="M798.8,613.4l2,2L798.8,613.4z"/>
<path fill="#686868" d="M318.4,615.4l2,2L318.4,615.4z"/>
<path fill="#787878" d="M796.8,615.4l2,2L796.8,615.4 M794.8,617.4l2,2L794.8,617.4z"/>
<path fill="#A8A8A8" d="M822.6,617.4l2,2L822.6,617.4z"/>
<path fill="#787878" d="M792.9,619.4l2,2L792.9,619.4z"/>
<path fill="#686868" d="M820.6,619.4l2,2L820.6,619.4z"/>
<path fill="#C4C4C4" d="M322.4,621.3l2,2L322.4,621.3z"/>
<path fill="#787878" d="M790.9,621.3l2,2L790.9,621.3z"/>
<path fill="#474747" d="M818.7,621.3l2,2L818.7,621.3z"/>
<path fill="#A8A8A8" d="M324.4,623.3l2,2L324.4,623.3z"/>
<path fill="#686868" d="M788.9,623.3l2,2L788.9,623.3z"/>
<path fill="#888888" d="M326.4,625.3l2,2L326.4,625.3z"/>
<path fill="#595959" d="M786.9,625.3l2,2L786.9,625.3z"/>
<path fill="#686868" d="M328.3,627.3l2,2L328.3,627.3z"/>
<path fill="#474747" d="M784.9,627.3l2,2L784.9,627.3 M330.3,629.3l2,2L330.3,629.3z"/>
<path fill="#3A3A3A" d="M368,629.3l2,2L368,629.3z"/>
<path fill="#C4C4C4" d="M812.7,629.3l2,2L812.7,629.3z"/>
<path fill="#3A3A3A" d="M332.3,631.3l2,2L332.3,631.3z"/>
<path fill="#BDBDBD" d="M810.7,631.3l2,2L810.7,631.3 M777,633.3l2,2L777,633.3z"/>
<path fill="#A8A8A8" d="M808.7,633.3l2,2L808.7,633.3z"/>
<path fill="#989898" d="M775,635.2l2,2L775,635.2z"/>
<path fill="#686868" d="M773,637.2l2,2L773,637.2z"/>
<path fill="#888888" d="M806.7,639.2"/>
<path fill="#C4C4C4" d="M380,639.2l2,2L380,639.2z"/>
<path fill="#787878" d="M802.8,639.2l2,2L802.8,639.2z"/>
<path fill="#BDBDBD" d="M381.9,641.2l2,2L381.9,641.2 M767,641.2l2,2L767,641.2z"/>
<path fill="#888888" d="M800.8,641.2l2,2L800.8,641.2z"/>
<path fill="#A8A8A8" d="M383.9,643.2l2,2L383.9,643.2z"/>
<path fill="#787878" d="M765.1,643.2l2,2L765.1,643.2 M798.8,643.2l2,2L798.8,643.2z"/>
<path fill="#3A3A3A" d="M346.2,645.2l2,2L346.2,645.2z"/>
<path fill="#989898" d="M385.9,645.2l2,2L385.9,645.2z"/>
<path fill="#3A3A3A" d="M763.1,645.2l2,2L763.1,645.2z"/>
<path fill="#888888" d="M796.8,645.2l2,2L796.8,645.2z"/>
<path fill="#595959" d="M348.2,647.1l2,2L348.2,647.1 M387.9,647.1l2,2L387.9,647.1z"/>
<path fill="#BDBDBD" d="M759.1,647.1l2,2L759.1,647.1z"/>
<path fill="#A8A8A8" d="M794.8,647.1l2,2L794.8,647.1z"/>
<path fill="#686868" d="M350.2,649.1l2,2L350.2,649.1z"/>
<path fill="#3A3A3A" d="M389.9,649.1l2,2L389.9,649.1z"/>
<path fill="#686868" d="M757.1,649.1l2,2L757.1,649.1z"/>
<path fill="#BDBDBD" d="M792.9,649.1l2,2L792.9,649.1z"/>
<path fill="#989898" d="M352.2,651.1l2,2L352.2,651.1z"/>
<path fill="#C4C4C4" d="M753.2,651.1l2,2L753.2,651.1 M790.9,651.1l2,2L790.9,651.1 M354.1,653.1l2,2L354.1,653.1 M395.8,653.1l2,2
	L395.8,653.1z"/>
<path fill="#686868" d="M751.2,653.1l2,2L751.2,653.1z"/>
<path fill="#787878" d="M397.8,655.1l2,2L397.8,655.1z"/>
<path fill="#C4C4C4" d="M747.2,655.1l2,2L747.2,655.1z"/>
<path fill="#686868" d="M784.9,655.1l2,2L784.9,655.1z"/>
<path fill="#474747" d="M360.1,657.1l2,2L360.1,657.1z"/>
<path fill="#3A3A3A" d="M399.8,657.1l2,2L399.8,657.1z"/>
<path fill="#686868" d="M745.2,657.1l2,2L745.2,657.1z"/>
<path fill="#989898" d="M782.9,657.1l2,2L782.9,657.1z"/>
<path fill="#787878" d="M362.1,659.1l2,2L362.1,659.1z"/>
<path fill="#C4C4C4" d="M403.8,659.1l2,2L403.8,659.1z"/>
<path fill="#989898" d="M741.2,659.1l2,2L741.2,659.1z"/>
<path fill="#BDBDBD" d="M780.9,659.1l2,2L780.9,659.1z"/>
<path fill="#C4C4C4" d="M364.1,661l2,2L364.1,661z"/>
<path fill="#787878" d="M405.8,661l2,2L405.8,661z"/>
<path fill="#3A3A3A" d="M739.3,661l2,2L739.3,661 M777,661l2,2L777,661z"/>
<path fill="#686868" d="M735.3,663l2,2L735.3,663z"/>
<path fill="#787878" d="M775,663l2,2L775,663z"/>
<path fill="#686868" d="M370,665l2,2L370,665z"/>
<path fill="#A8A8A8" d="M411.7,665l2,2L411.7,665z"/>
<path fill="#989898" d="M731.3,665l2,2L731.3,665z"/>
<path fill="#BDBDBD" d="M773,665l2,2L773,665z"/>
<path fill="#C4C4C4" d="M372,667l2,2L372,667z"/>
<path fill="#474747" d="M413.7,667l2,2L413.7,667z"/>
<path fill="#A8A8A8" d="M727.3,667l2,2L727.3,667z"/>
<path fill="#595959" d="M769,667l2,2L769,667 M376,669l2,2L376,669z"/>
<path fill="#989898" d="M417.7,669l2,2L417.7,669z"/>
<path fill="#BDBDBD" d="M723.4,669l2,2L723.4,669z"/>
<path fill="#A8A8A8" d="M767,669l2,2L767,669z"/>
<path fill="#989898" d="M378,671l2,2L378,671z"/>
<path fill="#C4C4C4" d="M719.4,671l2,2L719.4,671z"/>
<path fill="#3A3A3A" d="M721.4,671l2,2L721.4,671z"/>
<path fill="#474747" d="M763.1,671l2,2L763.1,671z"/>
<path fill="#787878" d="M423.6,673l2,2L423.6,673z"/>
<path fill="#C4C4C4" d="M715.4,673l2,2L715.4,673z"/>
<path fill="#3A3A3A" d="M717.4,673l2,2L717.4,673z"/>
<path fill="#A8A8A8" d="M761.1,673l2,2L761.1,673z"/>
<path fill="#686868" d="M383.9,674.9l2,2L383.9,674.9z"/>
<path fill="#BDBDBD" d="M427.6,674.9l2,2L427.6,674.9z"/>
<path fill="#A8A8A8" d="M711.5,674.9l2,2L711.5,674.9z"/>
<path fill="#474747" d="M713.4,674.9l2,2L713.4,674.9z"/>
<path fill="#686868" d="M757.1,674.9l2,2L757.1,674.9z"/>
<path fill="#A8A8A8" d="M385.9,676.9l2,2L385.9,676.9z"/>
<path fill="#3A3A3A" d="M429.6,676.9l2,2L429.6,676.9z"/>
<path fill="#A8A8A8" d="M707.5,676.9l2,2L707.5,676.9z"/>
<path fill="#3A3A3A" d="M709.5,676.9l2,2L709.5,676.9z"/>
<path fill="#787878" d="M433.5,678.9l2,2L433.5,678.9z"/>
<path fill="#989898" d="M703.5,678.9l2,2L703.5,678.9z"/>
<path fill="#888888" d="M751.2,678.9l2,2L751.2,678.9z"/>
<path fill="#595959" d="M391.9,680.9l2,2L391.9,680.9z"/>
<path fill="#787878" d="M437.5,680.9l2,2L437.5,680.9 M699.6,680.9l2,2L699.6,680.9z"/>
<path fill="#595959" d="M747.2,680.9l2,2L747.2,680.9z"/>
<path fill="#A8A8A8" d="M393.8,682.9l2,2L393.8,682.9z"/>
<path fill="#787878" d="M441.5,682.9l2,2L441.5,682.9z"/>
<path fill="#C4C4C4" d="M693.6,682.9l2,2L693.6,682.9z"/>
<path fill="#474747" d="M695.6,682.9l2,2L695.6,682.9z"/>
<path fill="#C4C4C4" d="M745.2,682.9l2,2L745.2,682.9z"/>
<path fill="#787878" d="M445.5,684.9l2,2L445.5,684.9z"/>
<path fill="#888888" d="M689.6,684.9l2,2L689.6,684.9z"/>
<path fill="#A8A8A8" d="M741.2,684.9l2,2L741.2,684.9z"/>
<path fill="#787878" d="M399.8,686.8l2,2L399.8,686.8z"/>
<path fill="#686868" d="M449.4,686.8l2,2L449.4,686.8z"/>
<path fill="#BDBDBD" d="M683.7,686.8l2,2L683.7,686.8z"/>
<path fill="#989898" d="M737.3,686.8l2,2L737.3,686.8z"/>
<path fill="#C4C4C4" d="M401.8,688.8l2,2L401.8,688.8z"/>
<path fill="#474747" d="M453.4,688.8l2,2L453.4,688.8z"/>
<path fill="#BDBDBD" d="M455.4,688.8l2,2L455.4,688.8z"/>
<path fill="#686868" d="M679.7,688.8l2,2L679.7,688.8z"/>
<path fill="#888888" d="M733.3,688.8l2,2L733.3,688.8z"/>
<path fill="#686868" d="M405.8,690.8l2,2L405.8,690.8z"/>
<path fill="#888888" d="M459.4,690.8l2,2L459.4,690.8z"/>
<path fill="#787878" d="M673.7,690.8l2,2L673.7,690.8z"/>
<path fill="#888888" d="M729.3,690.8l2,2L729.3,690.8z"/>
<path fill="#A8A8A8" d="M407.7,692.8l2,2L407.7,692.8z"/>
<path fill="#474747" d="M463.3,692.8l2,2L463.3,692.8z"/>
<path fill="#C4C4C4" d="M465.3,692.8l2,2L465.3,692.8 M665.8,692.8l2,2L665.8,692.8z"/>
<path fill="#787878" d="M667.8,692.8l2,2L667.8,692.8z"/>
<path fill="#888888" d="M725.4,692.8l2,2L725.4,692.8z"/>
<path fill="#595959" d="M411.7,694.8l2,2L411.7,694.8z"/>
<path fill="#686868" d="M469.3,694.8l2,2L469.3,694.8z"/>
<path fill="#BDBDBD" d="M659.9,694.8l2,2L659.9,694.8z"/>
<path fill="#595959" d="M661.8,694.8l2,2L661.8,694.8z"/>
<path fill="#888888" d="M721.4,694.8l2,2L721.4,694.8z"/>
<path fill="#C4C4C4" d="M413.7,696.8l2,2L413.7,696.8z"/>
<path fill="#686868" d="M475.2,696.8l2,2L475.2,696.8z"/>
<path fill="#989898" d="M653.9,696.8l2,2L653.9,696.8z"/>
<path fill="#474747" d="M655.9,696.8l2,2L655.9,696.8z"/>
<path fill="#A8A8A8" d="M717.4,696.8l2,2L717.4,696.8z"/>
<path fill="#989898" d="M417.7,698.8l2,2L417.7,698.8z"/>
<path fill="#595959" d="M481.2,698.8l2,2L481.2,698.8z"/>
<path fill="#A8A8A8" d="M483.2,698.8l2,2L483.2,698.8 M646,698.8l2,2L646,698.8z"/>
<path fill="#595959" d="M647.9,698.8l2,2L647.9,698.8z"/>
<path fill="#474747" d="M711.5,698.8l2,2L711.5,698.8z"/>
<path fill="#A8A8A8" d="M713.4,698.8l2,2L713.4,698.8z"/>
<path fill="#787878" d="M421.6,700.7l2,2L421.6,700.7z"/>
<path fill="#686868" d="M489.1,700.7l2,2L489.1,700.7z"/>
<path fill="#BDBDBD" d="M491.1,700.7l2,2L491.1,700.7z"/>
<path fill="#888888" d="M638,700.7l2,2L638,700.7z"/>
<path fill="#595959" d="M640,700.7l2,2L640,700.7z"/>
<path fill="#686868" d="M707.5,700.7l2,2L707.5,700.7z"/>
<path fill="#C4C4C4" d="M709.5,700.7l2,2L709.5,700.7z"/>
<path fill="#686868" d="M425.6,702.7l2,2L425.6,702.7z"/>
<path fill="#595959" d="M497.1,702.7l2,2L497.1,702.7z"/>
<path fill="#A8A8A8" d="M499.1,702.7l2,2L499.1,702.7 M628.1,702.7l2,2L628.1,702.7z"/>
<path fill="#686868" d="M630.1,702.7l2,2L630.1,702.7z"/>
<path fill="#888888" d="M703.5,702.7l2,2L703.5,702.7z"/>
<path fill="#686868" d="M429.6,704.7l2,2L429.6,704.7z"/>
<path fill="#989898" d="M508.4,705.3l1.4,0.6L508.4,705.3z"/>
<path fill="#E8E8E8" d="M512.4,705.3l1.4,0.6L512.4,705.3z"/>
<path fill="#989898" d="M616.2,704.7l6,2L616.2,704.7z"/>
<path fill="#474747" d="M697.6,704.7l2,2L697.6,704.7z"/>
<path fill="#C4C4C4" d="M699.6,704.7l2,2L699.6,704.7z"/>
<path fill="#888888" d="M433.5,706.7l2,2L433.5,706.7z"/>
<path fill="#595959" d="M518.3,707.3l1.4,0.6L518.3,707.3z"/>
<path fill="#BDBDBD" d="M520.9,706.7l6,2L520.9,706.7 M600.3,706.7l6,2L600.3,706.7z"/>
<path fill="#474747" d="M607.6,707.3l1.4,0.6L607.6,707.3z"/>
<path fill="#888888" d="M693.6,706.7l2,2L693.6,706.7z"/>
<path fill="#A8A8A8" d="M437.5,708.7l2,2L437.5,708.7z"/>
<path fill="#3A3A3A" d="M439.5,708.7l2,2L439.5,708.7 M530.8,708.7l6,2L530.8,708.7z"/>
<path fill="#787878" d="M536.8,708.7l6,2L536.8,708.7z"/>
<path fill="#A8A8A8" d="M542.7,708.7l6,2L542.7,708.7z"/>
<path fill="#E8E8E8" d="M548.7,708.7l27.8,2L548.7,708.7z"/>
<path fill="#C4C4C4" d="M576.5,708.7l6,2L576.5,708.7z"/>
<path fill="#888888" d="M583.8,709.3l1.4,0.6L583.8,709.3z"/>
<path fill="#686868" d="M587.8,709.3l1.4,0.6L587.8,709.3z"/>
<path fill="#3A3A3A" d="M591.8,709.3l1.4,0.6L591.8,709.3z"/>
<path fill="#686868" d="M687.6,708.7l2,2L687.6,708.7z"/>
<path fill="#C4C4C4" d="M689.6,708.7l2,2L689.6,708.7z"/>
<path fill="#787878" d="M443.5,710.7l2,2L443.5,710.7z"/>
<path fill="#474747" d="M681.7,710.7l2,2L681.7,710.7z"/>
<path fill="#BDBDBD" d="M683.7,710.7l2,2L683.7,710.7z"/>
<path fill="#A8A8A8" d="M447.4,712.7l2,2L447.4,712.7z"/>
<path fill="#474747" d="M449.4,712.7l2,2L449.4,712.7z"/>
<path fill="#3A3A3A" d="M675.7,712.7l2,2L675.7,712.7z"/>
<path fill="#A8A8A8" d="M677.7,712.7l2,2L677.7,712.7z"/>
<path fill="#989898" d="M453.4,714.6l2,2L453.4,714.6z"/>
<path fill="#3A3A3A" d="M455.4,714.6l2,2L455.4,714.6z"/>
<path fill="#474747" d="M669.8,714.6l2,2L669.8,714.6z"/>
<path fill="#989898" d="M671.8,714.6l2,2L671.8,714.6 M459.4,716.6l2,2L459.4,716.6z"/>
<path fill="#474747" d="M461.3,716.6l2,2L461.3,716.6 M663.8,716.6l2,2L663.8,716.6z"/>
<path fill="#A8A8A8" d="M665.8,716.6l2,2L665.8,716.6 M465.3,718.6l2,2L465.3,718.6z"/>
<path fill="#595959" d="M467.3,718.6l2,2L467.3,718.6z"/>
<path fill="#686868" d="M657.9,718.6l2,2L657.9,718.6z"/>
<path fill="#BDBDBD" d="M659.9,718.6l2,2L659.9,718.6z"/>
<path fill="#989898" d="M473.3,720.6l2,2L473.3,720.6z"/>
<path fill="#474747" d="M475.2,720.6l2,2L475.2,720.6 M649.9,720.6l2,2L649.9,720.6z"/>
<path fill="#989898" d="M651.9,720.6l2,2L651.9,720.6z"/>
<path fill="#C4C4C4" d="M479.2,722.6l2,2L479.2,722.6z"/>
<path fill="#989898" d="M481.2,722.6l2,2L481.2,722.6z"/>
<path fill="#474747" d="M483.2,722.6l2,2L483.2,722.6z"/>
<path fill="#888888" d="M644,722.6l2,2L644,722.6z"/>
<path fill="#A8A8A8" d="M489.1,724.6l2,2L489.1,724.6z"/>
<path fill="#595959" d="M491.1,724.6l2,2L491.1,724.6 M634,724.6l2,2L634,724.6z"/>
<path fill="#888888" d="M636,724.6l2,2L636,724.6z"/>
<path fill="#989898" d="M499.1,726.6l2,2L499.1,726.6z"/>
<path fill="#3A3A3A" d="M502.4,727.1l1.4,0.6L502.4,727.1z"/>
<path fill="#686868" d="M626.1,726.6l2,2L626.1,726.6z"/>
<path fill="#E8E8E8" d="M629.5,727.1l1.4,0.6L629.5,727.1z"/>
<path fill="#C4C4C4" d="M508.4,729.1l1.4,0.6L508.4,729.1z"/>
<path fill="#595959" d="M512.4,729.1l1.4,0.6L512.4,729.1z"/>
<path fill="#3A3A3A" d="M614.2,728.5l2,2L614.2,728.5z"/>
<path fill="#686868" d="M616.2,728.5l2,2L616.2,728.5z"/>
<path fill="#D7D7D7" d="M619.6,729.1l1.4,0.6L619.6,729.1z"/>
<path fill="#A8A8A8" d="M520.9,730.5l6,2L520.9,730.5z"/>
<path fill="#474747" d="M528.2,731.1l1.4,0.6L528.2,731.1z"/>
<path fill="#686868" d="M603.7,731.1l1.4,0.6L603.7,731.1z"/>
<path fill="#C4C4C4" d="M607.6,731.1l1.4,0.6L607.6,731.1z"/>
<path fill="#BDBDBD" d="M536.8,732.5l6,2L536.8,732.5z"/>
<path fill="#787878" d="M542.7,732.5l6,2L542.7,732.5z"/>
<path fill="#262626" d="M550.1,733.1l1.4,0.6L550.1,733.1z"/>
<path fill="#3A3A3A" d="M584.4,732.5l6,2L584.4,732.5z"/>
<path fill="#989898" d="M591.8,733.1l1.4,0.6L591.8,733.1z"/>
<path fill="#D7D7D7" d="M558.6,734.5l19.9,2L558.6,734.5z"/>
<path fill="#686868" d="M843.5,343.4l2,2L843.5,343.4z"/>
<path fill="#010101" d="M845.5,343.4c-2.4,8.7-1.2,15.1,7.9,17.9C852.8,353.5,852,348,845.5,343.4z"/>
<path fill="#888888" d="M847.4,343.4l2,2L847.4,343.4z"/>
<path fill="#C4C4C4" d="M851.4,345.4v6V345.4z"/>
<path fill="#E8E8E8" d="M841.5,347.4v6V347.4z"/>
<path fill="#595959" d="M851.4,351.4l2,2L851.4,351.4z"/>
<path fill="#787878" d="M843.5,355.3l2,2L843.5,355.3z"/>
<path fill="#C4C4C4" d="M850.8,361.9l1.4,0.6L850.8,361.9z"/>
<path fill="#010101" d="M831.6,365.3c0.6,7.1,1.6,10.5,7.9,13.9C840.9,371.4,838.7,368.4,831.6,365.3z"/>
<path fill="#A8A8A8" d="M835.5,365.3l2,2L835.5,365.3z"/>
<path fill="#010101" d="M679.3,625.5c45.1,38.1,62.5,13.1,109.6,6.2l45.5,10.1c29.4-5.8,73.8-12.9,48.8-35.3
	c-8.9,14.7-37.1,18.1-59.8,15.1l-40.1-14.7l-41.1,25.8c-25.2,8.1-46.8-21.4-63.3-35.5l-27,25.4c-60.1,47.6-82.4-46.5-119.1-73.6
	C527,614.6,632.1,695,679.3,625.5z"/>
<path fill="#010101" d="M807.3,636.2"/>
<path fill="#010101" d="M806.7,635.6"/>
<path fill="#010101" d="M854.4,567.7l-9.9-3c-18.3-23.4-45.7-98.3-99.3-102.2c51.6,39.7,33.2,98.7,103.4,118.5
	c12.1,27.4,25,37.1,40.7,41.9c1-2.8,2.8-5.4,5.6-7.3"/>
<path fill="#010101" d="M368.5,623.1c0.2,0,0.2,0.1,0.3,0.1c67.3,4.4,146,17.5,217,38.5c31.2,9.2,60,20.2,83.6,31.2
	c6.7,3.1,18.5,11,29.4,11.8c20.7,1.7,5.7-4.7-5.4-9.7c-21.3-9.5-43.3-19.1-69.3-27.7c-73.7-24.2-154.3-40.8-230.4-49.4
	c-19.7-2.3-38.4-3.8-56.1-4.8C348.8,615.9,357.4,619.5,368.5,623.1z"/>
</svg>
