<?xml version="1.0" standalone="yes"?>
<svg width="630" height="380">
<path style="fill:#ffffff; stroke:none;" d="M0 0L0 337C5.34562 330.652 11.0023 323.496 18.0394 318.818L43 307L41 298C50.8478 297.999 58.4702 296.402 59 285C67.3982 284.61 70.6264 280.157 71 272C80.5571 270.758 77.0074 266.995 82.3218 261.609L89.973 254.907L93.3179 246.376L104.567 237.536L111 229C104.548 219.148 78.7328 213.189 82.3333 197.004C83.5266 191.64 89.8962 188.345 95 188.133L143 191.981C156.945 191.377 161.711 171.752 176 170.188C182.417 169.486 187.953 172.886 194 174.324L237 183.561C252.592 185.991 267.579 180.662 283 180L283 178C262.519 174.473 244.422 157.479 229.91 144.213L215.04 135.482C206.914 129.181 201.88 118.266 197.948 109C190.741 92.0205 183.142 78.6681 180.718 60C180.02 54.6181 179.023 44.1344 185.214 41.1983C188.444 39.6665 192.882 41.8733 196 42.7986L223 54C223 39.0817 222.961 11.2578 240 4.34875C252.649 -0.780304 273.804 12.1208 283.961 18.4529C321.61 41.9244 344.283 79.2826 375 110L396.039 130.791L414.995 141.8C419.658 145.128 421.245 148.499 420 154L451 158.493C471.579 156.003 483.892 140.869 505 149C515.838 133.614 535.149 120.041 551 110.192C557.08 106.414 562.679 101.75 570 101C553.826 110.477 538.181 122.035 525.197 135.59C520.097 140.915 513.14 147.477 512 155C521.567 153.53 532.416 142.016 540.286 136.309C553.409 126.791 568.445 118.79 583 111.742L602 103L525 156C531.619 158.373 542.224 153.757 549 152.4L574 146.62L589 136.05C599.51 130.536 614.64 129.86 626 132L624 136L626 141L605 138.929C591.566 142.91 585.221 155.652 571 159.624C557.323 163.444 534.525 162.454 523.434 171.994C519.53 175.352 519.217 187.023 519 192C532.886 190.245 549.147 184.583 563 188.135C571.919 190.422 580.209 201.622 568 206C564.595 191.717 547.021 197.994 537 200.706C530.294 202.521 517.858 199.24 512.529 203.603C497.841 215.633 491.064 248.192 468.424 250.898C459.069 252.016 456.924 242.059 450.815 237.924C446.303 234.87 441.976 236.081 437 235.867C429.175 235.529 419.671 231.399 412.938 238.742C409.377 242.627 409.327 252.946 408.579 258L403.17 297L402.258 313.985C399.255 321.598 388.538 320.442 387.912 312L389.831 303L387.133 285L392 265C372.8 282.102 370.998 305.516 371 330C371.001 341.304 386.709 355.701 371 362L353.279 332.999C348.388 316.378 358.586 299.993 361.385 284L361.032 267L380 247L343 246.829C333.915 245.921 324.213 241.685 315 243.225C303.509 245.144 293.147 254.608 282 258.112C268.68 262.298 251.876 260.325 238 259.985C212.818 259.368 190.381 254.381 165.09 258.627L152 258.122C130.087 269.346 111.483 296.216 96.1381 314.83L70.7492 341.285L54.8302 360.15L33.3032 367.367L25 379C29.9691 381.085 36.6497 380 42 380L77 380L201 380L630 380L630 0L0 0z"/>
<path style="fill:#131517; stroke:none;" d="M223 54C214.837 48.1884 205.47 45.3835 196 42.4954C192.782 41.514 187.636 39.1527 184.394 41.0671C180.841 43.1654 180.167 49.3152 180.043 53C179.692 63.4692 182.047 77.4311 186.352 87C192.858 101.46 200.491 121.549 211.518 133.076L229.91 145.105C243.26 158.09 263.338 176.029 283 178L283 180C267.905 180.312 253.234 185.935 238 183.561L195 174.324C188.148 172.695 182.291 169.309 175 170.184C161.078 171.857 156.331 190.781 143 191.941C127.377 193.302 112.307 188.977 97 188.093C91.6813 187.786 84.7443 189.5 82.6034 195.04C76.2973 211.358 102.793 220.704 111 229C106.705 230.421 106.801 234.496 103.772 237.536L92.6034 246.376C85.8163 255.042 82.7903 269.679 71 272C70.3263 279.658 66.8816 284.285 59 285C58.0299 295.692 50.4482 297.994 41 298L43 307C29.5871 312.968 17.0113 318.62 6.10494 328.615C2.74013 331.699 -2.96172 339.994 1.6034 344.382C4.58557 347.248 10.1314 344.297 13 342.637L27 331.843L44 325.521C53.1075 320.439 60.4726 310.271 68.0895 303.159L105.845 266.576C112.035 259.322 120.314 242.93 129.015 239.118C133.461 237.17 140.305 240.617 145 241C141.416 248.68 129.727 260.522 121 261C120.512 271.647 111.416 282.784 100 281C99.968 290.054 93.9082 298.612 84 296C83.6816 302.969 80.7994 307.369 77 313C73.9587 310.991 71.6367 310.196 68 310C68.8043 320.205 66.8792 323.992 56 324C55.9729 333.439 52.4852 330.864 48.0309 336.602L42.3657 350.487C35.4515 357.2 23.8779 357.646 16.4336 365.594C12.3977 369.903 14.8711 374.182 20 375C23.9889 388.099 31.4931 368.782 35.0579 366.84L54.8302 360.786C64.733 354.147 72.6942 340.847 80.8156 332.039L130 278C136.369 271.639 145.098 260.977 153.715 257.809L165 258.892C194.031 254.443 220.919 260 250 260C261.57 260 273.955 261.479 285 257.456C295.166 253.754 305.3 244.906 316 243.228C324.464 241.902 333.632 245.993 342 246.829L380 247C374.325 252.675 364.618 258.831 361.028 266.001C358.351 271.347 362.303 277.349 361.381 283C358.634 299.835 348.083 316.465 353.279 333.996C355.899 342.839 365.979 353.826 371 362C377.096 360.374 380.55 355.409 378.272 349L371.314 337C368.016 323.188 370.948 296.959 376.854 284.09L391 265L387.093 287L389.621 301L388.218 314.981C391.618 322.142 401.372 320.567 402.772 312.996L408.579 259C409.385 253.556 409.469 243.87 412.938 239.434C419.026 231.649 443.691 232.983 450.815 238.56C456.976 243.383 459.156 252.441 469 251.062C492.359 247.791 497.704 215.564 513.329 203.603C518.922 199.322 530.244 202.746 537 200.985C547.917 198.141 562.64 192.204 568 206C580.689 203.299 572.711 190.369 564 188.135C550.096 184.57 532.834 189.43 519 192C519.413 186.942 519.691 176.255 523.434 172.649C533.533 162.917 557.838 162.961 571 159.866C585.58 156.437 591.642 143.957 605 139.434C611.057 137.383 619.565 140.982 626 141L624 137L626 132C614.682 129.212 598.47 130.557 588 136.05L573 146.62C559.3 152.711 539.846 155.083 525 157C549.51 138.528 574.347 117.698 602 104C595.588 101.783 585.826 109.989 580 112.692C563.517 120.34 547.964 130.502 532.996 140.745C526.4 145.26 519.707 152.858 512 155C513.828 148.29 519.726 142.318 524.389 137.286C536.513 124.204 553.415 108.972 570 102C563.46 99.4741 556.241 106.294 551 109.576C536.643 118.564 512.335 133.27 505 149C485.896 138.973 470.718 154.897 452 158.069L420 154C421.347 149.387 420.828 145.778 416.941 142.532L396.039 130.076L376 110C345.137 79.1369 322.192 40.8735 283.961 17.8719C273.71 11.705 251.568 -1.54276 239.001 4.21838C222.478 11.7928 223 39.0341 223 54z"/>
<path style="fill:#ffffff; stroke:none;" d="M237 10C231.926 23.965 221.797 40.3723 228.89 55.7901C230.972 60.3156 237.942 63.6392 242 66.1891L272 86.1644C315.142 115.312 363.202 148.087 415 157C414.697 142.794 404.959 142.932 395 136.755C387.792 132.283 382.592 126.074 377.13 119.715C351.569 89.9539 326.595 59.0829 296.09 34.1304C277.837 19.2001 261.143 8.09457 237 10M412 159C395.467 158.954 379.044 152.737 364 146.424C323.702 129.514 288.834 100.348 252 77.1891C237.689 68.1915 223.356 59.3255 208 52.1196C203.711 50.1067 195.058 45.5543 190.279 47.618C184.689 50.0314 185.748 63.1328 186.09 68C187.169 83.4019 197.268 95.0779 204.331 108L212.044 124.671L226.826 135.289C243.135 149.545 262.7 170.997 286 172.907C309.532 174.836 330.249 163.387 353 163.134L365 167.664C377.786 172.01 408.211 177.222 412 159z"/>
<path style="fill:#131517; stroke:none;" d="M281 57C284.673 67.5917 299.52 74.9853 307.91 81.7678L373 131.86C381.746 138.14 391.764 148.253 403 149C401.462 144.493 396.756 143.064 393.015 140.48L373 125.452L319 84.7901C307.187 75.545 294.541 63.4431 281 57M260 108C268.693 116.139 281.655 119.717 292 125.309C324.715 142.991 364.319 164 402 164L402 162C368.884 161.909 332.775 141.661 304 126.892C291.19 120.317 274.446 109.269 260 108z"/>
<path style="fill:#ffffff; stroke:none;" d="M607 134C611.324 136.984 615.737 138.756 621 139C618.069 133.188 612.786 134 607 134M579 152C586.28 150.678 591.149 144.207 597 140C590.161 135.322 579.906 145.278 579 152M511 145L508 152C510.023 149.812 511.441 148 511 145M515 160C521.388 157.785 530.012 151.121 533 145C525.912 147.727 518.53 153.214 515 160M503 160C497.67 158.454 496.844 155.108 498 150C488.925 150.219 479.406 163.136 486.742 171.562C490.381 175.741 498.258 171.66 500.547 167.811L503 160M435 221C443.109 222.481 446.729 217.51 452.715 212.576L484 188.478C489.442 184.436 495.991 181.318 499 175C480.662 178.811 481.044 163.777 486 151C478.388 151.396 473.701 156.551 467 159.475C464.731 160.465 460.752 160.824 459.693 163.43L459.829 174C459.236 180.227 457.041 186.578 453.941 192C448.6 201.341 437.858 210.725 435 221M500 152L499 157L503 157L502 152L500 152M519 167C533.539 163.498 548.97 162.96 563 157.439C567.567 155.642 571.592 155.862 575 152C560.538 153.717 546.016 157.546 532 161.412C527.621 162.62 520.435 162.093 519 167M507 158L506 168C510.495 165.188 512.088 161.213 507 158M416 162C421.967 178.942 397.341 186.361 402.643 201.96C404.593 207.696 424.424 217.922 429.995 215.728C434.584 213.922 436.256 209.836 438.9 206.09C444.804 197.724 461.588 176.794 453.821 165.433C450.756 160.949 438.009 160.367 433 160.025C426.702 159.595 421.973 159.714 416 162M515 168C507.152 171.04 503.407 178.328 496.961 183.215L459 212.014C456.532 214.409 441.977 224.715 444.176 228.435C447.568 234.173 466.344 225.754 469.715 222.89C486.76 208.41 511.375 192.187 515 168M264 187C272.329 190.739 283.939 191.195 293 192.166L340 196.961C349.735 197.387 360.594 195.415 369.996 198.638C391.162 205.894 364.444 231.4 354 234.775C343.741 238.091 333.514 233.477 323 238C335.047 243.408 351.278 240.961 364 240.09C369.634 239.704 375.821 240.778 380.981 237.86C384.82 235.69 386.45 231.904 388 228C389.14 232.722 386.96 235.776 385 240C388.843 240.303 395.926 242.666 399.258 239.972C406.38 234.214 399.402 220.237 408 213C400.816 204.089 398.436 202.613 400 191C385.297 192.284 368.305 201.962 355 190C369.89 190 388.039 188.899 398 176L370 174.532L351 169.599C322.523 170.818 292.079 181.71 264 187M414 169C404.772 175.175 391.127 183.623 384 192C393.175 190.081 415.991 181.253 414 169M5 341L22 329.403L43.9105 319.805C83.4376 291.093 109.053 246.96 143 213C151.374 204.623 161.018 192.744 173 189.498L190.775 189.396C194.539 187.745 195.857 181.871 192.678 179.133C174.568 163.54 157.426 189.794 146.421 200.385C130.987 215.238 114.023 230.144 100.279 247.015L85.6211 269.83L47.6103 308.907C39.1158 318.698 23.3586 320.676 13.625 329.586C8.9872 333.831 5.23249 333.856 5 341M199 182L199 188C215.584 193.49 230.479 206.646 246.004 214.691C268.5 226.348 292.047 230.12 317 229.999C328.684 229.943 339.736 225.895 349 218.869C352.283 216.379 357.609 212.898 357.048 208.108C356.615 204.413 352.098 203.002 349 202.379L320 199.424L255 191.586C236.527 188.481 217.781 182.806 199 182M514 182C498.931 206.617 480.976 222.692 455 235C459.303 246.348 468.704 246.115 477.83 239.301C490.31 229.983 502.815 212.869 509.752 199C512.18 194.146 515.948 187.446 514 182M514 199C532.588 198.846 550.563 190.819 569 196C562.79 185.096 537.242 193.591 527 194.039C522.275 194.246 515.672 193.961 514 199M142 197C123.357 191.502 124.381 211.638 115 221C114.882 211.537 118.553 204.966 121 196C104.426 192.054 103 199.596 103 214L99 214C98.842 206.345 98.0219 201.31 101 194C92.4082 191.461 84.9797 195.406 89.6844 204.999C93.0591 211.881 108.659 225.752 116.996 224.839C124.036 224.068 125.852 212.839 129.648 208.325L142 197M145 224L143 220C137.829 223.031 134.363 227.541 132 233C164.663 235.578 197.214 238.606 230 238.996L311 237C306.409 233.522 299.512 235.297 294 234.91L270 228.975C248.389 222.25 231.85 206.691 211 199L196 223L199 199C179.757 199 167.015 200.016 167 223C162.123 213.696 165.349 207.275 168 198L167 197C156.182 202.037 148.41 212.801 145 224M361 202L362 214C366.367 209.961 366.543 204.911 361 202M367 203C370.385 214.535 359.713 222.312 349 223C355.793 228.554 368.594 224.603 372.427 216.96C375.532 210.77 374.591 203.579 367 203z"/>
<path style="fill:#131517; stroke:none;" d="M330 204L330 208L323 205L327 211C321.387 209.958 317.471 210.877 312 212L312 214L323 213L304 218L314 219L309 221C315.991 223.729 334.788 218.155 339 212L333 212C332.917 208.565 332.909 206.055 330 204z"/>
<path style="fill:#ffffff; stroke:none;" d="M413 214C403.618 219.128 404.689 229.495 402.8 239C398.235 261.967 389.466 283.756 396 307C392.911 309.002 393.041 311.464 393 315C399.846 312.782 398.814 299.275 399.916 293L407.424 235C408.459 229.274 414.785 219.149 413 214M417 215L416 225C423.139 224.444 423.358 217.432 417 215M317 218L318 219L317 218M426 219L422 229C426.093 226.857 428.501 224.397 430 220L426 219M432 225L431 230L440 231C438.727 226.282 436.795 225.157 432 225M339 229L339 231L355 231L355 229L339 229M414 228L413 234L421 230L414 228M0 344L0 380L22 380L20 375C15.7599 373.769 12.8877 370.454 16.4383 366.375C23.8731 357.833 34.6628 357.605 42.3657 351.146C47.0844 347.189 45.3239 341.712 48.0633 337.318L54.2577 333.977C56.7938 331.841 55.9981 326.938 56 324C67.1275 323.999 69.3689 320.831 68 310L76 313C81.9266 308.697 83.8476 303.152 84 296C94.37 300.138 99.9931 289.944 100 281C111.963 284.015 120.771 271.739 121 261C129.871 260.785 142.615 249.49 145 241C140.241 240.359 133.707 237.085 129.015 238.643C124.31 240.205 121.491 246.23 118.709 249.961L97.7137 275C78.8734 296.483 54.1137 320.347 28 330.878C18.2915 334.793 11.915 348.503 0 344M75 318C73.967 324.816 68.8446 330.085 62 331C59.8328 337.374 50.5788 351.529 44.9599 355.411C38.9566 359.56 31.9419 358.742 27 365L47.9961 358.411C56.0671 353.451 59.7537 343.741 66.2863 337.184L123.999 277.173L147.715 254.475C152.208 250.648 157.738 248.109 159 242C140.448 245.205 130.512 265.136 119.535 277.961C111.755 287.051 100.635 295.655 91.4182 303.184C85.3618 308.132 84.0235 316.74 75 318M162 251L185 249.17C224.679 252.948 259.386 257.586 298 245C289.806 241.561 275.971 245 267 245L192 244.015C182.539 243.783 162.313 238.087 162 251M367 277C382.385 276.817 386.575 253.335 398 246C391.91 241.387 386.887 246.355 382.715 250.997C375.332 259.209 367.283 264.975 367 277M370 280C365.069 281.635 365.26 287.458 364.127 292C361.543 302.351 353.348 320.472 356.808 330.941C358.269 335.364 363.368 335.784 365.821 331.772C368.18 327.912 367 321.336 367 317L368 301L370 280M364 339C364.686 345.695 368.733 351.923 373 357C375.22 349.471 371.92 341.27 364 339M18 372L25 373L25 367C21.2897 367.596 19.1935 368.313 18 372z"/>
</svg>
