<?xml version="1.0" encoding="utf-8"?>
<!-- Generator: Adobe Illustrator 17.1.0, SVG Export Plug-In . SVG Version: 6.00 Build 0)  -->
<!DOCTYPE svg PUBLIC "-//W3C//DTD SVG 1.1//EN" "http://www.w3.org/Graphics/SVG/1.1/DTD/svg11.dtd">
<svg version="1.1" id="Layer_1" xmlns="http://www.w3.org/2000/svg" xmlns:xlink="http://www.w3.org/1999/xlink" x="0px" y="0px"
	 viewBox="0 0 468 468" enable-background="new 0 0 468 468" xml:space="preserve">
<g transform="translate(0,468) scale(0.066857,-0.066857)">
	<path d="M4560,5830c-8-5-25-10-38-10c-12,0-30-4-40-9c-9-4-48-23-87-41c-64-29-248-149-320-207c-16-14-62-56-101-95
		c-42-40-75-65-78-59c-4,6-2,19,4,30c24,46-4,141-42,141c-15,0-18-4-12-17c22-51,15-143-10-143c-10,0-17,18-21,55
		c-8,64-40,113-109,170c-33,27-50,35-58,27c-7-7-3-20,16-44c34-46,78-146,74-172c-3-24-36-34-43-14c-51,147-105,216-208,268
		c-83,41-89,19-14-49c52-49,107-135,107-170c0-10-9-26-19-35c-19-18-20-17-35,19c-9,21-16,39-16,41c0,12-90,131-134,177
		c-77,80-142,110-234,110c-71-1-107-14-99-37c2-6,20-9,39-8c20,2,50-4,66-12c42-21,103-94,142-168c18-35,37-64,42-66c4-2,8-12,8-23
		s7-19,16-19c13,0,15,7,11,29c-5,24-2,30,15,34c21,6,57-25,58-51c0-7,11-18,25-24s25-18,25-26s6-12,15-8c9,3,15,0,15-8
		c0-18,40-9,56,12c6,8,16,12,21,9c6-4,14,1,17,10c6,14,9,14,26-5c11-12,20-26,20-32s6-10,13-9c6,1,20-1,30-6c10-4,23-2,31,4
		c7,6,16,8,20,4s11-1,17,7c8,13,12,11,27-9c16-19,24-22,52-16c27,6,32,5,27-8c-4-10,2-17,15-20c14-4,19-11,15-21s-1-16,7-16
		c17,0,26-22,26-60c0-19,7-33,19-40c14-7,19-18,17-38c-5-37-4-36-20-23c-11,10-21,9-45-3c-16-9-32-12-35-7c-8,13-131-19-163-42
		c-7-5-17-6-22-2c-6,3-16-3-23-15c-7-11-18-20-24-20c-12,0-34-42-34-65c0-7-10-15-22-17c-16-2-24-11-26-30c-2-16-11-30-23-33
		c-10-4-19-11-19-17c0-5,7-8,15-4c13,5,13,1,0-31c-8-19-15-38-15-41c0-2-16-2-37,1c-30,5-42,1-75-24c-21-17-38-37-38-45s-7-14-16-14
		c-11,0-14-5-9-17c17-42,17-53,1-53c-9,0-16,4-16,9s-11,11-25,13c-14,3-25,1-25-3c0-17-30-9-42,10c-9,15-16,17-31,10
		c-12-7-23-7-32,1c-9,7-15,8-20,1c-4-7-12-7-25,1c-16,10-23,9-42-9c-13-11-29-18-35-16c-8,3-13-4-13-15s-7-22-15-26
		c-21-8-19-54,5-100c10-22,17-42,15-46c-2-3,5-13,16-20c23-17,25-50,4-50c-8,0-15,6-15,14c0,14-41,26-87,26c-31,0-84,27-105,53
		c-17,22-17,21-38-27c-11-27-25-82-31-122c-12-80-4-240,13-250c18-12,33,16,39,79c14,125,48,219,82,225c14,3,17-4,17-48s3-51,18-48
		c10,2,17,13,17,26c1,44,26,43,78-3c26-25,73-59,104-76c30-17,73-49,95-70c40-38,41-40,34-89c-9-64-17-82-91-205
		c-33-55-66-113-74-130c-7-16-17-38-22-47c-5-10-9-29-9-42c0-14-4-27-9-30c-4-3-11-36-13-73c-4-51-13-81-35-118
		c-28-49-93-181-93-191c0-2-9-26-21-52c-26-59-32-73-59-147c-12-33-26-69-30-80c-28-69-33-115-17-168c9-28,19-83,22-122
		c10-99,42-226,90-355c26-70,31-82,53-130c11-25,26-60,34-77c7-18,16-33,20-33c5,0,8-6,8-14s13-40,30-71c17-31,30-63,30-71
		s5-14,10-14c6,0,10-9,10-20s5-20,10-20c6,0,10-9,10-20s5-29,10-40c6-11,15-29,20-40c6-11,10-33,10-49c0-17,5-33,10-36
		c14-9,12-74-2-89c-7-6-29-19-48-29c-73-35-100-75-100-145c0-51,16-75,69-102c19-10,25-9,32,1c4,7,4,18,0,24c-17,21-19,80-4,113
		c16,33,45,57,57,45c9-9,8-43-1-43c-19,0-31-51-22-92c12-52,31-68,81-68c31,0,38,4,38,19c0,11-4,23-10,26c-5,3-10,41-10,83
		c0,72-1,75-16,54c-19-28-34-28-34-1c0,23-22,49-42,49c-7,0-2,6,12,13c40,20,52,53,45,130c-6,63-19,108-47,165c-10,18-9,25,1,31
		c9,6,10,11,2,15c-6,4-11,2-11-3c0-6-4-11-10-11c-5,0-7,13-3,30c4,21,2,30-8,30s-10,3-2,11s3,19-19,41c-21,21-29,36-26,53
		c3,13,1,30-3,37c-7,10-9,9-9-4c0-10-4-18-9-18c-17,0-23,20-12,34c9,10,8,15-4,20c-8,3-15,13-15,22s-9,29-21,45c-14,20-19,39-15,57
		c3,15,3,21,0,15c-10-23-26-14-22,12c3,13,1,22-4,19s-12,3-15,15s-9,21-14,21s-6,18-3,40c4,27,3,40-5,40c-6,0-11,14-11,30
		c0,20-5,30-15,30c-9,0-15,9-15,25c0,14-10,54-21,88c-44,130-17,399,46,454c27,24,37,56,11,34c-19-16-30,3-17,28c8,13,18,18,33,14
		c14-3,18-1,12,4c-6,4-14,19-18,33c-3,14-3,19,0,13c9-21,24-15,24,11c0,13,7,29,15,36s20,31,26,54c14,50,81,186,91,186c5,0,8,8,8,19
		c0,20,89,121,106,121c5,0,15-15,22-32c6-18,20-38,31-45c17-11,21-10,26,7c8,27,29,26,22-1c-3-12,0-22,9-26c8-3,14-12,14-20
		s5-11,10-8c6,4,17,1,25-5c11-9,19-8,37,4c27,19,41,21,35,4c-2-7,8-27,22-43c24-28,28-43,38-160c7-72,11-141,10-154
		c-4-46,19-31,51,35c24,48,36,64,44,56c12-12,14-87,4-155c-8-54,2-64,35-34c26,24,55,43,81,53c18,7,48.4-6.1,45.4,15.4
		c7.5,2-10.7,50.9-47.4,39.6c-4-8-19,6-41,38c-19,28-42,53-51,56s-20,15-23,26c-7,20-7,20-20,2c-12-17-14-16-20,10c-4,15-5,31-2,34
		c7,7-28,79-43,88c-14,9-12,55,3,55c20,1,44,42,50,89c5,44,21,70,33,58c4-4-1-16-10-26c-13-14-15-24-8-37c9-16,11-15,22,7
		c18,34,18,34,40,14c26-23,37-13,22,20c-7,14-18,37-24,52c-7,15-30,45-51,67c-53,57-62,43-62-100c0-96-2-114-15-114
		c-9,0-28,25-44,60c-42,89-52,89-78,3c-7-24-18-43-25-43c-13,0-18,15-27,84c-9,70-39,80-67,21c-8-16-19-29-24-27c-11,3-11,28,0,113
		c13,102-25,89-120-40c-49-66-61-77-63-59c-2,12,2,40,8,62c25,84,44,125,100,211c59,91,68,109,81,157c12,45,21,41,38-14
		c16-48,36-65,56-48c8,7,15,23,15,37c0,36,27,93,44,93c9,0,29-30,50-76c27-57,40-75,53-72c12,2,18,15,20,48c5,81,27,97,38,30
		c6-37,32-72,123-168c7-8,25-30,40-50c15-21,35-46,45-56c16-19,23-46,12-46c-3,0-31,18-61,41c-56,41-93,47-79,11
		c22-54,65-184,65-197c0-8,5-15,10-15c6,0,10,12,10,26c0,31,23,28,28-4c2-12,8-22,13-22s9-6,9-14s5-16,11-18s12-16,12-30
		c0-19,4-25,14-21c12,5,14,1,8-15c-5-17-2-22,10-22c13,0,16-6,11-24c-5-19-1-25,17-30c17-5,19-8,8-15c-12-7-11-12,1-30
		c8-11,18-18,21-15c7,7,11-3,21-48c4-16,13-28,21-28c10,0,15-10,15-30c0-16,5-30,10-30c6,0,10-9,10-20s12-44,26-75
		c22-45,24-58,14-70s-9-15,4-15c12,0,16-10,16-44c0-25,5-48,10-51c6-3,10-39,10-78c0-40,0-81,1-92c1-40-13-89-42-151
		c-17-35-28-68-25-73c4-5,2-12-4-16c-5-3-10-14-10-23c0-10-9-34-20-55c-11-20-20-44-20-52s-9-24-20-35s-23-34-27-50
		c-3-17-9-30-14-30s-9-9-9-19c0-11-6-21-12-24c-10-3-10-9,0-26c16-27,15-30-6-24c-15,4-20-5-30-57c-6-33-8-68-5-76c6-17-13-19-21-1
		c-3,6-3-4,0-24c4-24,0-48-11-69c-19-37-27-71-26-115c0-16-5-47-11-68c-10-32-9-40,3-48c12-9,12-12-2-21c-15-10-15-15,7-54
		c15-27,20-45,14-49s4-16,22-28c44-30,63-93,42-142c-19-45-19-45,14-45c42,0,72,37,72,88c0,64-42,130-112,175c-24,15-28,24-28,62
		c0,24,4,47,10,50s10,30,10,60s5,57,10,60c6,3,10,21,10,40s5,37,10,40c6,3,10,21,10,40s5,37,10,40c6,3,10,17,10,30c0,13,5,27,10,30
		c6,3,10,15,10,26c0,10,4,27,9,37c5,9,13,28,19,42c5,14,23,54,40,90c55,119,72,160,72,173c0,7,4,17,8,22c5,6,19,44,31,85
		c75,257,82,374,31,530c-46,140-233,504-286,557c-26,26-35,51-22,59s72-54,114-118c23-37,54-51,54-25c0,6-9,23-21,37
		c-19,24-33,45-134,200c-24,36-75,101-114,144c-39,44-73,89-75,100c-2,12-10,47-17,79c-11,53-11,62,8,100c11,23,32,49,47,56
		c24,13,29,13,47-5c10-11,23-40,27-64c6-34,12-45,26-45c22,0,47,65,43,115c-2,33,0,35,27,33c60-4,113-88,136-213
		c22-121,38-105,47,47c6,116-2,163-40,216c-24,35-13,49,38,49c47,0,97-39,149-116c52-78,69-63,36,31c-39,114-67,162-115,195
		c-24,17-42,35-39,40c3,4,25,8,50,8c49,0,109-31,157-83c35-38,63-31,45,10c-22,51-65,108-122,159l-56,52v143c0,195,21,254,146,410
		c92,114,85,101,129,234c46,141,88,217,153,282c28,29,52,57,52,63C4610,5843,4580,5843,4560,5830z M4360,5619c0-26-53-196-75-238
		c-40-78-171-241-194-241c-17,0-13,32,9,65c11,17,20,38,20,48c0,24-41,22-68-3c-25-24-38-25-46-5c-8,22,13,61,40,74
		c13,6,24,15,24,20c0,21-22,21-66,2c-56-25-54-25-54-3c0,19,68,89,134,138c38,29,254,152,269,153C4357,5630,4360,5625,4360,5619z
		 M3958,5105c17-9,46-15,66-13c19,1,38-1,42-4c9-10-64-144-101-183c-17-19-39-35-48-35s-19-4-22-10c-3-5-24-10-46-10
		c-32,0-39-3-39-20c0-24,15-25,75-5c25,9,50,13,55,10c6-3,10,1,10,9c0,11,9,16,28,16c15,0,33,5,40,12c15,15,19,2,26-72
		c7-80,17-129,27-136c16-10,9-39-17-67c-17-19-26-40-27-67c-1-30-7-42-24-51c-14-8-21-19-18-27s0-12-7-10c-16,6-48-21-59-51
		c-7-18-15-22-36-18c-25,5-93-26-93-43c0-16-38,2-50,25c-14,27-4,53,13,36c18-18,27-13,27,14c0,16,4,23,13,19c7-2,22,4,32,16
		c10,11,24,20,31,20s11,6,8,14s2,17,13,20c19,6,54,63,58,93c1,10,5,26,9,35c7,16-17,67-29,61c-15-8-25-1-25,18c0,11-4,17-10,14
		c-6-4-17-1-25,5c-16,13-122,4-142-12c-7-6-37-11-67-13c-29-1-59-5-65-9s-11,0-11,9s9,19,21,22c11,3,18,11,15,18c-2,7,1,20,7,28
		c14,19,87,34,87,19c0-6,9-8,20-5s20,9,20,14s11,9,25,9c28,0,44,25,27,42c-5,5-57,11-115,12c-58,0-108,4-111,7c-4,3,9,18,29,33
		c19,15,35,31,35,36c0,6,18,40,41,78c29,48,50,71,72,81c18,7,39,16,47,21C3815,5125,3924,5121,3958,5105z M3560,4755
		c0-19-8-28-27-36c-65-26-145-4-130,34c7,18,31,24,105,26C3557,4780,3560,4779,3560,4755z M3161,4646c90-27,141-36,217-36
		c42,0,82-4,89-8c16-10,11-87-5-86c-7,1-44,2-82,3c-47,0-72,5-74,14c-2,6-7,21-11,32c-7,19-8,18-14-5c-6-22-12-25-43-22
		c-20,2-39-1-42-7c-7-11,49-25,64-16c6,4,14-1,16-11c4-17,14-19,98-16l94,3l6-36c4-19,4-40,1-46c-8-12-118-2-160,16
		c-16,7-41,16-55,19c-42,9-120,66-120,87c0,10-6,19-14,19c-21,0-56,53-56,84S3091,4668,3161,4646z M3880,4635c0-14-11-37-24-50
		c-14-13-27-33-31-43c-14-48-185-127-285-134l-45-3v40v40l80,7c49,3,82,2,86-4s8-4,12,4c2,8,24,20,48,28c55,17,68,27,44,36
		c-11,5-22,1-29-8c-15-21-66-12-67,11c0,11-3,10-9-5c-12-30-17-32-95-35l-70-3v45v44l90,6c93,7,189,24,215,40c8,4,30,9,48,9
		C3876,4660,3880,4657,3880,4635z M3125,4420c10-11,14-20,9-20c-12,1-44,25-44,34C3090,4446,3107,4440,3125,4420z M3205,4390
		c10-11,31-20,46-20s31-4,34-10c3-5,24-10,46-10s39-5,39-11c0-7,10-9,25-5c17,4,25,2,25-7s9-12,30-9c17,2,30,8,30,13c0,6,8,5,19-1
		c25-13,44-13,36,1c-5,7,6,9,31,7c35-3,39-6,36-28c-1-13-11-33-21-45c-26-30-62-123-49-131c6-4,6-10,0-16s-19-4-36,7
		c-20,13-37,16-70,11l-45-7l-20,42c-11,23-18,46-15,50c3,5-2,6-12,2c-13-5-15-2-9,15c4,16,2,22-9,22c-8,0-23,12-33,26
		c-37,53-74,86-90,80c-13-6-14-4-3,9c12,14,10,15-16,9c-26-7-28-6-15,9C3176,4415,3183,4414,3205,4390z"/>
	<path d="M3790,5067c-48-23-70-44-76-75c-7-33,12-74,45-99c19-15,84-17,109-4c9,5,31,15,48,22c55,22,66,97,21,147
		c-16,17-31,22-71,21C3838,5079,3804,5073,3790,5067z M3864,5044c37-37,2-111-36-77c-21,19-24,79-5,86
		C3843,5062,3848,5061,3864,5044z"/>
	<path d="M3074,5608c-4-7,0-16,12-22c32-18,114-105,114-121c0-8,8-15,18-15s22-4,28-9c12-13,76,1,82,17c2,6-3,12-11,12s-23,12-32,27
		c-26,39-64,69-123,98C3104,5623,3085,5626,3074,5608z"/>
	<path d="M3010,5520c0-11,8-23,18-27c32-11,92-76,92-100c0-31-18-29-94,6c-71,33-158,64-236,82c-73,18-302,18-360,1
		c-113-33-280-139-280-178c0-8,2-14,5-14c7,0,49,24,55,31c10,13,106,56,150,68c38,10,51,10,82-3c20-9,39-20,43-26
		c19-31,241-180,268-180c9,0,21-9,26-19c9-17,6-20-35-26c-64-9-244-136-244-172c0-23,23-14,68,25c53,48,116,82,150,82
		c35,0,90-34,103-63c8-18,6-36-12-83c-30-82-33-114-15-159c12-28,13-41,5-51c-6-8-15-11-20-9c-16,11-87-35-128-82
		c-35-41-55-75-113-195c-4-10-8-38-8-63c0-33,4-45,15-45c8,0,15,7,15,16c0,57,102,197,185,254c52,36,65,29,24-14
		c-61-62-139-208-139-258c0-27,22-17,40,18c42,83,88,151,123,186c28,27,37,42,29,51c-5,6-12,27-14,44c-4,26,0,34,14,39
		c14,4,16,9,8,19c-8,9-6,14,6,19c9,3,20,4,24,1c5-3,9,25,8,62c-1,106,17,162,44,135c6-6,16-8,22-6s21-5,33-16s26-20,32-20
		c5,0,12-7,15-16c4-10,13-13,26-9c11,4,29,0,41-9c14-9,33-12,55-9c32,5,50-10,23-19c-6-2,28-5,77-6c78-2,91,0,124,22
		c21,14,47,38,59,55l21,30l-20,6c-15,5-18,10-11,19c18,21-98,176-131,176c-8,0-23,9-33,20s-26,20-37,20c-10,0-18,5-18,10
		c0,6-13,10-29,10c-17,0-33,5-36,10c-3,6-16,9-28,9c-17-1-18-2-4-6c9-2,17-9,17-14c0-14-31-11-64,6c-15,8-35,15-42,15
		c-8,0-14,4-14,9c0,21,13,41,26,41c8,0,14,5,14,10c0,6,5,10,11,10c11,0,69,57,69,69c1,3,10,17,21,30c17,21,22,22,30,10
		c7-12,9-11,9,3c0,10,14,27,30,40c27,20,44,48,20,33c-10-6-23,2-63,40C3080,5537,3010,5563,3010,5520z M2865,5385
		c123-32,157-44,173-63c28-35,7-39-95-17c-40,9-43-4-8-39c47-47,27-79-25-41c-34,25-60,32-60,16c0-5,7-14,15-21c25-20,19-50-10-50
		c-16,0-33,12-52,36c-61,80-93,110-145,137c-30,15-62,27-71,27c-23,0-31,18-16,37C2590,5429,2736,5419,2865,5385z M3165,5110
		c3-5,14-10,23-10c27,0,76-51,111-115c18-33,47-75,64-92c17-18,29-34,26-34c-11-3-230-11-274-9c-27,0-54,5-59,10c-6,6-18,10-27,10
		c-23,0-71,60-106,130c-48,98-48,93-6,86c27-4,49,0,73,13C3028,5120,3154,5127,3165,5110z"/>
	<path d="M3013,5054c-22-23-25-31-19-72c6-51,22-67,85-89c64-22,106-17,135,18c26,30,35,91,18,114c-16,22-105,55-148,55
		C3049,5080,3033,5074,3013,5054z M3138,5022c4-40-13-64-42-60c-27,4-33,41-11,74C3107,5071,3134,5063,3138,5022z"/>
	<path d="M4683,4407c-60-63-191-170-243-199c-222-124-329-392-275-683c22-115,68-199,210-375c125-155,198-278,224-376
		c19-72,14-242-10-315c-11-35-27-74-35-86s-14-29-14-38s-7-18-15-21c-8-4-15-13-15-21c0-10-6-13-16-9c-8,3-12,2-9-4s17-7,31-4
		c14,4,24,2,24-5c0-6,4-11,10-11c5,0,7,7,3,16c-4,10,1,17,15,21c11,2,26,18,32,34c7,16,15,29,19,29c7,0,24,37,42,90
		c7,19,15,40,18,45c4,6,8,56,10,112c3,99-12,206-31,230c-6,7-5,14,2,18c15,9,12,25-4,19c-17-6-31,12-16,21c16,10,12,25-6,25
		c-10,0-14,5-10,15c3,9-1,18-9,21c-8,4-15,17-15,30c0,14-6,24-14,24c-16,0-51,49-41,58c4,4,12-1,19-11c7-9,17-17,22-17s14-10,19-22
		c6-15,17-22,29-20c14,3,18-1,13-17c-3-14-1-18,11-14c12,5,14,1,9-23c-3-16-4-23-1-16c10,23,26,13,20-13c-7-27,5-46,35-57
		c9-4,19-19,22-35c3-15,11-53,17-83c20-93-1-259-43-354c-15-32-27-65-27-73c0-10-6-13-16-9c-13,5-15,1-10-20c6-21,4-25-8-21
		c-14,6-20-4-17-25c0-4-6-5-14-2c-10,4-15,0-15-15c0-12-6-21-16-21c-11,0-14-6-9-20c7-21-10-28-18-7c-4,9-6,9-6-1c-1-16-26-42-40-42
		c-6,0-11-7-11-15c0-18-16-20-24-2c-3,6-3,2,0-10c4-16,1-23-10-23c-8,0-28-11-44-25c-17-14-34-25-39-24c-23,4-32-2-26-18
		c5-12,2-15-9-10c-10,3-19,0-22-10c-4-9-13-13-21-9c-10,3-18-1-22-12c-10-26-66-82-82-82c-11,0-12-3-3-12s5-17-14-35
		c-14-12-29-23-35-23c-5,0-9-5-9-10c0-6-15-19-33-30c-27-16-97-99-97-115c0-8,29-6,48,4c9,4,34,16,54,26c43,20,125,98,180,171
		c25,34,55,60,86,74c172,81,337,253,405,422c46,116,52,148,52,288v135l-47,95c-31,62-94,158-183,275c-176,234-225,331-225,450
		c0,152,91,311,212,371c46,22,66,26,153,26c63,1,125-5,167-16c63-16,69-16,120,2c59,20,98,65,98,113c0,34-47,91-88,108
		c-23,10-28,17-24,37c5,26-4,26-54,2c-15-7-28-7-42,1c-11,6-28,8-36,5c-9-3-23-3-32,0c-23,9-1,33,37,41c30,7,37,19,19,30
		c-10,6-96-15-145-35c-31-13-145-22-145-12c0,5,25,36,55,68c30,33,54,62,55,67C4740,4425,4696,4420,4683,4407z M4622,4220
		c4-14,179-20,196-7c9,7,18,5,30-5c19-17,68-32,114-36c11-1,15-7,12-17c-7-17,11-21,21-5s26,0,20-20c-4-12,0-20,10-22
		c14-3,14-5,0-26c-15-21-21-22-103-16c-48,3-94,8-102,10c-35,12-120,15-120,4c0-8-13-10-41-5c-39,7-41,6-34-15c6-19,5-20-13-9
		c-17,11-26,9-64-16c-23-15-47-34-51-42c-4-7-14-13-21-13c-14,0-29-24-35-57c-1-5-6-1-11,7c-7,11-10,12-10,2c0-8-16-40-36-72
		s-40-75-46-97c-19-77-26-265-9-271c6-2,11-17,11-32c0-16,5-32,11-36c6-3,8-17,5-29c-3-13-2-27,4-30c5-3,10-1,10,4c0,6,5,11,10,11
		c6,0,10-11,10-23c0-13,9-32,20-42c24-21,26-40,5-31c-25,9-17-9,15-32c17-13,30-31,30-42c0-32-17-23-50,25c-17,25-39,49-49,55
		c-10,5-22,22-26,37c-3,15-16,40-27,55c-11,16-18,32-15,35s-6,15-19,27c-22,18-27,35-35,106c-14,124-18,220-9,225c5,3,11-1,14-7
		c3-7,5,10,3,37c-1,36,2,49,11,47c7-1,12,8,12,22s4,27,9,31c6,3,9,13,8,23c-1,19,75,126,111,155c12,10,29,25,36,33c8,8,19,14,25,14
		s11,4,11,10c0,5,12,13,28,16c15,4,45,22,67,40C4608,4232,4616,4236,4622,4220z M4514,3154c28-29,33-44,13-44c-11,0-67,55-67,66
		C4460,3189,4491,3176,4514,3154z"/>
	<path d="M3468.4,3470.1c-5-9-28.4-39.1-37.4-38.1c-12,2-17-7-19-39c-2-23-9-47-17-53s-11-18-9-25c3-7-4-23-15-34
		c-12-12-21-30-21-40c0-20-18-31-51-31c-10,0-19-6-19-14c0-19-29-48-40-41c-5,3-11,1-15-5c-3-5-1-10,4-10c6,0,11-7,11-15
		c0-16-34-38-44-27c-4,3-20-9-37-27c-30-35-36-51-19-51c6,0,10-11,10-24c0-14,5-28,10-31c17-10,11-19-22-38c-36-21-42-15,70-74
		c33-18,63-37,67-43c9-15,45-12,45,4c0,7-7,20-16,27s-20,22-25,34c-19,42-66,117-92,147c-16,18-24,35-19,40c15,15,55-7,114-61
		c31-28,59-51,62-51c13,0,4,28-34,108c-22,46-40,87-40,92c0,25,43,6,77-35c20-25,44-45,51-45c11,0,13,10,10,45c-4,32-2,45,7,45
		c8,0,10,9,7,26c-2,14,0,35,6,47c16,36,48.3,215.4,76.4,200.1C3500.4,3454.1,3474.4,3485.1,3468.4,3470.1z"/>
	<path d="M3796.7,3119.8c-6-4-13.7-60.8-36.7-104.8c-23-44-51-93-63-109l-21-29l40,7c124,24,129,24,144,10c9-9,10-14,3-14
		s-37-24-66-53c-30-29-65-60-78-69l-24-16l28-11c16-6,39-11,53-11c40,0,28-26-36-72c-32-23-61-48-64-55c-9-22,10-23,50-3
		c68,35,80,24,40-34c-34-50-90-188-112-276c-10-41-22-76-26-78c-5-2-8-14-8-27s-4-27-10-30c-5-3-10-21-10-39c0-17-4-36-9-41
		c-14-15-22-103-27-289c-4-143-8-173-23-195c-10-14-20-35-22-45c-5-26-23-26-27-1c-2,11-16,47-32,80c-24,48-30,78-34,150
		c-3,50-10,133-16,185s-12,132-13,178c-1,45-5,82-9,82c-5,0-8,5-8,12c0,28-174,298-229,355c-23,25-28,53-8,53c6,0,46-11,88-24
		c90-28,118-21,72,18c-16,14-50,56-75,93s-58,81-72,96s-28,35.3-26,43c24.5,95.6-39.4,62.8-38-14c-2-14,8-40,22-61
		c26-36,30-80,12-109c-4-7-4-16-1-22c3-5-3-10-14-10s-23-4-26-10c-3-5,1-10,11-10c12,0,15-6,11-22c-3-12-2-29,4-39c6-12,5-20-2-25
		c-9-5-8-10,2-18c20-15,49-63,49-79c0-8,9-22,19-31c11-10,17-25,14-33c-5-12-1-14,15-8c14,4,22,2,22-5s9-25,21-41c15-21,19-37,14-59
		c-5-23-4-29,8-25c7,3,18,0,24-7c13-18,53-148,53-175c0-12,5-25,10-28c12-8,13-51,1-73c-6-12-4-29,8-53c11-22,16-49,13-72
		c-2-21,1-44,7-51c8-10,9-16,1-21c-13-8-13-55,0-55c6,0,10-7,10-15s-4-15-10-15c-5,0-10-7-10-15s7-15,16-15c12,0,15-7,10-27
		c-3-16-3-22,0-15c12,28,24,9,21-33c-3-37,0-45,14-45c10,0,19-10,22-27c6-35,2-40-19-22c-14,11-18,10-34-11c-10-14-20-23-23-20
		c-2,3-14,20-26,38c-30,43-44,30-45-41c-1-63,14-87,54-87c53,0,90,21,111,61c21,42,39,44,39,4c0-35,57-75,106-75c65,0,69,7,53,87
		c-16,71-38,91-49,43c-6-25-40-42-40-20c0,14-25,40-39,40c-6,0-11,5-11,10c0,6,5,10,11,10c5,0,17,16,25,35s19,35,24,35
		c6,0,10,9,10,19c0,11,3,21,8,24c4,2,2,3-4,1c-7-1-10,50-9,161c1,135,4,165,17,179c13,13,15,23,7,48c-12,42-12,41,7,34
		c12-4,14-1,9,13c-3,11-1,22,5,26c5,3,10,16,10,29c0,12,9,41,20,64c11,22,20,55,20,72s9,39,20,50s20,32,20,46c0,20,4,25,16,20
		c11-4,14-1,10,12c-4,11,11,51,34,98c30,58,41,91,40,124c0,94,7,166,19,188c7,13,14,33,16,44c3,12,10,25,17,29c9,6,7,17-7,48
		c-10,23-21,41-25,41s-17,8-29,19c-16,14-18,20-8,24c16,6,21,67,5,67c-6,0-5,6,2,15C3845,3093,3815.7,3130.8,3796.7,3119.8z"/>
	<path d="M4225,2842c-39-28-40-29-43-97c-2-39-7-74-13-79c-5-6-9-22-9-37s-4-31-10-34c-5-3-10-17-10-30s-4-27-10-30
		c-5-3-10-15-10-26c0-10-4-27-9-37c-5-9-14-30-21-47c-7-16-16-38-21-47c-5-10-9-25-9-33s-4-15-10-15c-5,0-10-6-10-13
		c0-18-24-67-32-67c-5,0-8-7-8-15s-9-30-20-50s-20-44-20-55s-4-20-10-20c-5,0-10-13-10-29c0-17-4-32-9-35c-5-3-11-18-14-33
		c-3-16-11-48-17-73c-15-63-18-83-30-185c-12-115-12-115,3-115c18,0,87-75,87-94c0-8,5-18,10-21c6-3,10-28,10-54c0-42,3-49,25-59
		c14-7,46-12,70-12c35,0,48,5,64,26c30,39,26,62-19,103c-47,43-49,51-14,51c18,0,38-12,60-37c36-39,41-61,23-95c-15-27,10-48,56-48
		c76,0,92,86,29,155c-19,21-34,41-34,45c0,18,43-5,71-39c26-31,30-42,26-78s-2-43,13-43c10,0,25,12,35,26c15,23,15,28,1,58
		c-9,19-34,52-56,74c-46,46-94,59-177,48c-118-15-133-19-133-27c0-18-32-8-37,11c-6,23-19,26-26,8c-3-9-10-8-26,6
		c-11,11-21,23-21,28c0,13,28,9,33-4c4-10,6-10,6-1c1,7-10,20-24,29s-25,23-25,31c0,13,2,13,16,2c15-12,16-10,10,28c-5,26-3,50,4,64
		c10,17,9,23-1,30c-9,5-10,11-2,21c6,7,14,34,17,60c4,26,11,50,17,53c5,4,9,18,9,33s6,36,13,47c23,35,48,111,41,129c-3,9-1,16,5,16
		s11-5,11-11c0-5,5-7,11-4c5,4,9,17,8,28c-3,28,10,58,22,51c5-3,9,2,9,10c0,9,7,16,16,16c16,0,16,11-1,53c-5,12-2,17,10,17
		c15,0,17,6,12,37c-5,27-3,33,5,25c20-20,30-13,26,18c-3,17-1,30,4,30c4,0,8,12,8,26c0,25,44,149,62,170c4,6,6,18,2,27
		c-3,10,3,20,17,27c19,11,21,10,17-7c-3-10,1-24,9-31c8-8,13-9,14-2c1,5,2,15,3,22c0,6,7,13,14,16c7,2,13-2,11-9c-4-37,2-57,18-55
		c11,1,28-20,49-61c25-48,35-83,44-160c11-95,31-150,50-138c6,4,10,15,10,25s5,22,10,25c13,8,13,130-1,174c-21,68-61,139-95,171
		c-42,38-40,54,10,58c29,3,36,7,34,20c-3,15-18,17-106,16c-56,0-102,2-102,5c0,4,14,15,30,26s30,26,30,33
		C4300,2878,4268,2871,4225,2842z M4060,1602c0-4-6-14-12-20c-7-7-13-18-13-25s-4-14-9-17c-13-7-16,42-4,58
		C4034,1611,4060,1615,4060,1602z M4063,1510c-9-10-21-17-25-13c-5,3-2,13,8,24C4068,1545,4084,1535,4063,1510z"/>
	<path d="M2515,2850c-3-6,7-18,24-28c35-19,40-39,13-50c-10-4-46-25-80-47c-66-42-79-73-29-67c31,4,34-7,10-51c-27-50-23-264,7-382
		c64-257,220-483,363-529c9-3,17-10,17-15c0-17-99-31-220-31h-118l-39-44c-70-79-75-151-12-176c47-20,73,2,50,39c-5,8-6,21-1,30
		c4,9,14,29,21,44c11,24,64,67,83,67c14,0,4-20-29-56c-61-66-48-144,24-144c38,0,59,16,43,32c-22,22-13,63,22,101c33,36,76,50,76,24
		c0-7-9-18-20-25s-29-27-40-44c-17-28-17-34-5-58c26-50,71-52,180-9c11,4,32,10,48,13c101,21,107,26,107,77c0,22,5,39,10,39
		c6,0,10,6,10,13c0,6,14,21,30,32c16,11,30,23,30,28c0,4,6,7,13,7c6,0,22,8,34,18c22,17,22,18,7,77c-30,117-66,209-145,369
		c-16,32-29,65-29,72c0,8-4,14-10,14c-5,0-10,9-10,19c0,11-4,23-10,26c-5,3-10,15-10,26c0,10-4,19-10,19c-5,0-10,9-10,19
		c0,11-4,23-10,26c-5,3-10,17-10,31c0,13-4,24-10,24c-5,0-10,11-10,25s-4,25-10,25c-5,0-10,11-10,24c0,14-4,28-10,31
		c-5,3-10,19-10,35s-4,32-10,35c-5,3-10,21-10,39c0,17-5,37-10,42c-6,6-10,44-8,90c3,71,1,81-19,97c-38,31-56,18-31-23
		c20-31,2-34-39-6c-20,14-45,26-55,26c-9,0-20,5-23,10c-3,6-19,10-35,10s-32,5-35,10C2547,2863,2523,2863,2515,2850z M2680,2720
		c11-11,23-20,26-20c13,0,33-35,34-57c0-12,5-25,10-28c6-3,10-17,10-31s5-35,11-46c9-16,8-23-2-29c-9-5-9-9-3-9c7,0,14-8,18-17
		c3-10,10-25,15-33c15-22,71-170,71-186c0-7,9-18,21-24c16-9,18-14,9-25c-8-10-7-16,6-23c11-6,13-11,5-16c-6-4-11-12-11-17
		c0-6,5-7,10-4c17,10,44-23,31-39c-8-10-4-20,18-42s27-32,19-42c-8-9-6-19,9-35c26-29,63-103,63-126c0-10,8-29,19-42
		c21-28,37-99,21-99c-5,0-10-11-10-25c0-19-12-34-45-57c-25-18-45-37-45-43s-13-22-28-35c-16-14-32-32-35-40c-5-10-9-11-12-4
		c-6,13-55,6-55-7c0-12-37-11-45,1c-3,6-15,10-26,10c-21,0-24,16-9,40c9,13,11,13,21,0c9-13,10-13,6,0c-6,21,11,50,28,50
		c8,0,15,7,15,16s9,18,20,21s20,7,20,9c0,21-97,137-123,147c-9,3-29,25-44,49c-15,23-38,53-50,66s-25,37-28,53c-6,25-10,29-28,23
		c-18-5-20-4-10,6c9,10,9,20-4,43c-30,59-63,162-63,199c0,20-5,40-11,43c-6,4-7,19-4,37c5,19,3,28-3,24c-18-11-23,26-6,52
		c10,15,12,27,6,31c-11,7-13,121-2,136c4,6,7,25,7,42c0,26,8,41,39,68c21,19,45,34,52,35c6,0,12,5,12,10
		C2630,2747,2659,2741,2680,2720z M2798,1502c3-9-3-13-19-10c-12,1-24,9-27,16c-3,9,3,13,19,10C2783,1517,2795,1509,2798,1502z"/>
	<path d="M3577,2414c-13-22-12-244,1-244c17,0,33,98,26,161C3597,2397,3587,2429,3577,2414z"/>
	<path d="M3476,2360c-3-8-7-63-10-122c-5-118-11-142-33-113c-12,18-13,17-13-6c0-14,4-29,9-34c5-6,12-41,15-80c23-298,28-337,50-380
		c27-52,36-8,36,179c0,166,8,239,35,322c5,16,2,23-13,26c-17,5-22,20-32,97C3507,2341,3487,2391,3476,2360z"/>
	<path d="M3610,1856c0-8,5-18,10-21c6-3,10,3,10,14c0,12-4,21-10,21C3615,1870,3610,1864,3610,1856z"/>
	<path d="M3296,1535c4-8,10-15,15-15s9,7,9,15s-7,15-15,15C3296,1550,3293,1544,3296,1535z"/>
	<path d="M3690,1533c0-3,7-14,16-24c11-13,16-38,16-88c1-66,3-72,23-77c41-10,69-1,76,26c10,37,10,130,0,130c-5,0-11,9-14,20
		c-8,29-40,15-34-16c2-12,0-29-5-36c-7-10-8-10-6,2c4,21-36,70-56,70C3697,1540,3690,1537,3690,1533z"/>
</g>
</svg>
