<?xml version="1.0" encoding="utf-8"?>
<!-- Generator: Adobe Illustrator 17.1.0, SVG Export Plug-In . SVG Version: 6.00 Build 0)  -->
<!DOCTYPE svg PUBLIC "-//W3C//DTD SVG 1.1//EN" "http://www.w3.org/Graphics/SVG/1.1/DTD/svg11.dtd">
<svg version="1.1" id="Layer_1" xmlns="http://www.w3.org/2000/svg" xmlns:xlink="http://www.w3.org/1999/xlink" x="0px" y="0px"
	 viewBox="0 0 630 380" enable-background="new 0 0 630 380" xml:space="preserve">
<path fill="#131517" d="M211.5,133.1l18.4,12c13.3,13,33.4,30.9,53.1,32.9l2.3,1.7c2.3,0.4,3.1-0.3,6.3,0c7.5,0.6,15,1.3,22.6,1.4
	c15.3,0.3,30.6-0.5,45.9-1.4c7.6-0.5,15.3-1,22.9-1.3c6.5-0.3,13.4,0.2,19.9-0.7c10.8-1.4,11.5-6.2,15.7-15.6l1.3-8
	c1.3-4.6,0.8-8.2-3.1-11.5L396,130.1L376,110c-30.9-30.9-53.8-69.1-92-92.1c-10.3-6.2-32.4-19.4-45-13.7C222.5,11.8,223,39,223,54
	c-8.2-5.8-17.5-8.6-27-11.5c-3.2-1-8.4-3.3-11.6-1.4c-3.6,2.1-4.2,8.2-4.4,11.9c-0.4,10.5,2,24.4,6.3,34
	C192.9,101.5,200.5,121.5,211.5,133.1z"/>
<path fill="#FFFFFF" d="M237,10c-5.1,14-15.2,30.4-8.1,45.8c2.1,4.5,9.1,7.8,13.1,10.4l30,20c43.1,29.1,91.2,61.9,143,70.8
	c-0.3-14.2-10-14.1-20-20.2c-7.2-4.5-12.4-10.7-17.9-17c-25.6-29.8-50.5-60.6-81-85.6C277.8,19.2,261.1,8.1,237,10 M412,159
	c-16.5,0-33-6.3-48-12.6c-40.3-16.9-75.2-46.1-112-69.2c-14.3-9-28.6-17.9-44-25.1c-4.3-2-12.9-6.6-17.7-4.5
	c-5.6,2.4-4.5,15.5-4.2,20.4c1.1,15.4,11.2,27.1,18.2,40l7.7,16.7l14.8,10.6c16.3,14.3,35.9,35.7,59.2,37.6
	c23.5,1.9,44.2-9.5,67-9.8l12,4.5C377.8,172,408.2,177.2,412,159z"/>
<path fill="#131517" d="M281,57c3.7,10.6,18.5,18,26.9,24.8l65.1,50.1c8.7,6.3,18.8,16.4,30,17.1c-1.5-4.5-6.2-5.9-10-8.5l-20-15
	l-54-40.7C307.2,75.5,294.5,63.4,281,57 M260,108c8.7,8.1,21.7,11.7,32,17.3C324.7,143,364.3,164,402,164v-2
	c-33.1-0.1-69.2-20.3-98-35.1C291.2,120.3,274.4,109.3,260,108z"/>
<path fill="#FFFFFF" d="M413,214c-9.4,5.1-8.3,15.5-10.2,25c-4.6,23-13.3,44.8-6.8,68c-3.1,2-3,4.5-3,8c6.8-2.2,5.8-15.7,6.9-22
	l7.5-58C408.5,229.3,414.8,219.1,413,214 M417,215l-1,10C423.1,224.4,423.4,217.4,417,215 M426,219l-4,10c4.1-2.1,6.5-4.6,8-9
	L426,219 M432,225l-1,5l9,1C438.7,226.3,436.8,225.2,432,225 M339,229v2h16v-2H339 M414,228l-1,6l8-4L414,228 M0,344v36h22l-2-5
	c-4.2-1.2-7.1-4.5-3.6-8.6c7.4-8.5,18.2-8.8,25.9-15.2c4.7-4,3-9.4,5.7-13.8l6.2-3.3c2.5-2.1,1.7-7,1.7-10c11.1,0,13.4-3.2,12-14
	l8,3c5.9-4.3,7.8-9.8,8-17c10.4,4.1,16-6.1,16-15c12,3,20.8-9.3,21-20c8.9-0.2,21.6-11.5,24-20c-4.8-0.6-11.3-3.9-16-2.4
	c-4.7,1.6-7.5,7.6-10.3,11.3l-21,25c-18.8,21.5-43.6,45.3-69.7,55.9C18.3,334.8,11.9,348.5,0,344 M75,318c-1,6.8-6.2,12.1-13,13
	c-2.2,6.4-11.4,20.5-17,24.4c-6,4.1-13,3.3-18,9.6l21-6.6c8.1-5,11.8-14.7,18.3-21.2l57.7-60l23.7-22.7c4.5-3.8,10-6.4,11.3-12.5
	c-18.6,3.2-28.5,23.1-39.5,36c-7.8,9.1-18.9,17.7-28.1,25.2C85.4,308.1,84,316.7,75,318 M162,251l23-1.8c39.7,3.8,74.4,8.4,113-4.2
	c-8.2-3.4-22,0-31,0l-75-1C182.5,243.8,162.3,238.1,162,251 M367,277c15.4-0.2,19.6-23.7,31-31c-6.1-4.6-11.1,0.4-15.3,5
	C375.3,259.2,367.3,265,367,277 M370,280c-4.9,1.6-4.7,7.5-5.9,12c-2.6,10.4-10.8,28.5-7.3,38.9c1.5,4.4,6.6,4.8,9,0.8
	c2.4-3.9,1.2-10.4,1.2-14.8l1-16L370,280 M364,339c0.7,6.7,4.7,12.9,9,18C375.2,349.5,371.9,341.3,364,339 M18,372l7,1v-6
	C21.3,367.6,19.2,368.3,18,372z"/>
</svg>
